<?xml version="1.0" encoding="UTF-8"?>
<svg id="_图层_1" data-name="图层 1" xmlns="http://www.w3.org/2000/svg" xmlns:xlink="http://www.w3.org/1999/xlink" viewBox="0 0 1000 255">
  <defs>
    <style>
      .cls-1 {
        fill: #fff;
      }

      .cls-2 {
        fill: #b0d5ff;
      }

      .cls-3 {
        fill: #e8edff;
      }

      .cls-4 {
        fill: url(#_未命名的渐变_2);
      }
    </style>
    <linearGradient id="_未命名的渐变_2" data-name="未命名的渐变 2" x1="212.74" y1="47.5" x2="373.12" y2="207.88" gradientTransform="translate(0 255) scale(1 -1)" gradientUnits="userSpaceOnUse">
      <stop offset=".09" stop-color="#4488f5"/>
      <stop offset=".92" stop-color="#67c9f5"/>
    </linearGradient>
  </defs>
  <rect class="cls-2" x="0" width="1000" height="255"/>
  <g id="_图层_1-2" data-name=" 图层 1-2">
    <path class="cls-4" d="m345.93,35.81h-106c-21.17,0-38.5,17.33-38.5,38.5v106c0,21.17,17.33,38.5,38.5,38.5h106c21.17,0,38.5-17.33,38.5-38.5v-106c0-21.17-17.33-38.5-38.5-38.5Zm-105.08,154.32l-12.74,10.29,20.58-38.72-35.54-36.02,83.56-29.65-47.05,37.25,34.31,24.51-43.13,32.35h0Zm48.46-33.93l47.05-37.25-34.31-24.51,43.13-32.35,12.74-10.29-20.58,38.72,35.53,36.02-83.56,29.65h0Z"/>
  </g>
  <g>
    <path class="cls-1" d="m455.8,115.55c.81-1.25,2.18-2.01,4.09-2.31l.61-.09c1.57-.23,2.84-.01,3.83.65.99.67,2.03,1.81,3.13,3.44,1.51,2.2,3.67,3.78,6.48,4.74,2.81.96,5.65,1.06,8.53.3,2.87-.75,5.12-2.35,6.74-4.79,1.04-1.57,1.59-3.15,1.65-4.74.06-1.59-.39-3.03-1.35-4.31-.96-1.28-2.31-2.23-4.05-2.87-1.33-.46-3.89-.96-7.66-1.48-.75-.06-2.78-.35-6.09-.87-4.23-.75-7.69-2.86-10.35-6.31-2.67-3.45-4-7.38-4-11.79s1.51-8.27,4.52-11.57c2.9-3.25,6.6-5.35,11.09-6.31,4.49-.96,8.96-.65,13.4.91s8.08,4.29,10.92,8.18c1.16,1.62,1.48,3.12.96,4.48-.52,1.36-1.65,2.39-3.39,3.09l-.44.17c-1.57.64-2.93.71-4.09.22-1.16-.49-2.38-1.49-3.65-3-1.51-1.74-3.25-2.9-5.22-3.48-1.97-.58-3.93-.58-5.87,0-1.94.58-3.61,1.65-5,3.22-1.28,1.39-1.91,2.94-1.91,4.65s.55,3.25,1.65,4.61c1.1,1.36,2.55,2.28,4.35,2.74.64.17,1.48.33,2.52.48,1.04.15,2.09.28,3.13.39,4.06.35,7.13.9,9.22,1.65,4.41,1.62,7.73,4,9.96,7.13,2.23,3.13,3.31,6.6,3.22,10.4-.09,3.8-1.32,7.41-3.7,10.83-3.13,4.64-7.67,7.54-13.62,8.7-5.95,1.16-11.75.58-17.4-1.74-5.66-2.32-9.7-5.94-12.14-10.88-.87-1.74-.9-3.23-.09-4.48Z"/>
    <path class="cls-1" d="m520.96,76.05c-.93.96-2.29,1.44-4.09,1.44h-.17c-1.74,0-3.09-.48-4.04-1.44s-1.44-2.31-1.44-4.05v-.17c0-1.8.48-3.16,1.44-4.09.96-.93,2.3-1.39,4.04-1.39h.17c1.8,0,3.16.46,4.09,1.39.93.93,1.39,2.29,1.39,4.09v.17c0,1.74-.47,3.09-1.39,4.05Zm0,54.81c-.93.96-2.29,1.44-4.09,1.44h-.17c-1.74,0-3.09-.48-4.04-1.44s-1.44-2.31-1.44-4.05v-35.15c0-1.8.48-3.16,1.44-4.09.96-.93,2.3-1.39,4.04-1.39h.17c1.8,0,3.16.46,4.09,1.39.93.93,1.39,2.29,1.39,4.09v35.15c0,1.74-.47,3.09-1.39,4.05Z"/>
    <path class="cls-1" d="m536.27,101.76c2.14-5.05,5.1-9.06,8.87-12.05,3.77-2.99,7.97-4.48,12.61-4.48,2.9,0,5.54.84,7.92,2.52,2.38,1.68,4.26,4.12,5.66,7.31,1.39,3.19,2.09,6.96,2.09,11.31v20.44c0,1.74-.46,3.09-1.39,4.05-.93.96-2.29,1.44-4.09,1.44h-.17c-1.74,0-3.09-.48-4.04-1.44s-1.44-2.31-1.44-4.05v-20.44c0-2.44-.33-4.42-1-5.96-.67-1.54-1.57-2.65-2.7-3.35-1.13-.7-2.39-1.04-3.79-1.04-2.09,0-3.92.43-5.48,1.3-1.57.87-2.81,2.35-3.74,4.44-.93,2.09-1.39,4.9-1.39,8.44l-11.14,7.83c0-5.8,1.07-11.22,3.22-16.27Zm6.52,29.1c-.93.96-2.29,1.44-4.09,1.44h-.17c-1.74,0-3.09-.48-4.05-1.44s-1.44-2.31-1.44-4.05v-35.15c0-1.8.48-3.16,1.44-4.09.96-.93,2.31-1.39,4.05-1.39h.17c1.8,0,3.16.46,4.09,1.39.93.93,1.39,2.29,1.39,4.09v35.15c0,1.74-.47,3.09-1.39,4.05Zm22.71-29.1c2.15-5.05,5.1-9.06,8.87-12.05,3.77-2.99,7.97-4.48,12.62-4.48,2.9,0,5.54.84,7.92,2.52,2.38,1.68,4.26,4.12,5.66,7.31,1.39,3.19,2.09,6.96,2.09,11.31v20.44c0,1.74-.46,3.09-1.39,4.05s-2.29,1.44-4.09,1.44h-.17c-1.74,0-3.09-.48-4.05-1.44s-1.44-2.31-1.44-4.05v-20.44c0-2.44-.33-4.42-1-5.96-.67-1.54-1.57-2.65-2.7-3.35-1.13-.7-2.39-1.04-3.78-1.04-2.09,0-3.92.43-5.48,1.3-1.57.87-2.81,2.35-3.74,4.44-.93,2.09-1.39,4.9-1.39,8.44l-11.14,7.83c0-5.8,1.07-11.22,3.22-16.27Z"/>
    <path class="cls-1" d="m622.84,150.7c-.93.96-2.29,1.44-4.09,1.44h-.17c-1.74,0-3.09-.48-4.05-1.44s-1.44-2.31-1.44-4.04v-54.98c0-1.8.48-3.16,1.44-4.09.96-.93,2.31-1.39,4.05-1.39h.17c1.8,0,3.16.46,4.09,1.39.93.93,1.39,2.29,1.39,4.09v9.4l-2.44,7.83,2.44,8.26v29.49c0,1.74-.47,3.09-1.39,4.04Zm26.54-62.25c3.48,2.15,6.21,5.06,8.18,8.74,1.97,3.68,2.96,7.7,2.96,12.05s-.99,8.37-2.96,12.05c-1.97,3.68-4.7,6.6-8.18,8.74-3.48,2.15-7.4,3.22-11.75,3.22s-7.96-1.23-11.01-3.7c-3.04-2.46-5.32-5.55-6.83-9.27-1.51-3.71-2.26-7.4-2.26-11.05s.75-7.34,2.26-11.05c1.51-3.71,3.78-6.8,6.83-9.27,3.05-2.46,6.71-3.7,11.01-3.7s8.26,1.07,11.75,3.22Zm-19.75,8.53c-2.03,1.16-3.6,2.8-4.7,4.92-1.1,2.12-1.65,4.57-1.65,7.35s.55,5.25,1.65,7.4c1.1,2.15,2.67,3.8,4.7,4.96,2.03,1.16,4.41,1.74,7.13,1.74,2.15,0,4.13-.59,5.96-1.78,1.83-1.19,3.26-2.86,4.31-5,1.04-2.15,1.57-4.58,1.57-7.31s-.52-5.15-1.57-7.26c-1.04-2.12-2.47-3.77-4.26-4.96-1.8-1.19-3.8-1.78-6-1.78-2.73,0-5.1.58-7.13,1.74Z"/>
    <path class="cls-1" d="m739.42,130.82c-.99.99-2.41,1.48-4.26,1.48h-.17c-1.86,0-3.28-.49-4.26-1.48-.99-.99-1.48-2.41-1.48-4.26v-33.23l-17.4,35.41c-.58,1.22-1.33,2.12-2.26,2.7-.93.58-2.09.87-3.48.87h-.35c-1.39,0-2.55-.29-3.48-.87-.93-.58-1.68-1.48-2.26-2.7l-17.4-35.41v33.23c0,1.86-.49,3.28-1.48,4.26-.99.99-2.41,1.48-4.26,1.48h-.17c-1.86,0-3.28-.49-4.26-1.48-.99-.99-1.48-2.41-1.48-4.26v-52.98c0-1.86.46-3.28,1.39-4.26.93-.99,2.26-1.48,4-1.48h.7c3.19,0,5.45,1.39,6.79,4.18l22.1,44.98,22.1-44.98c1.33-2.78,3.6-4.18,6.79-4.18h.35c1.86,0,3.28.49,4.26,1.48.99.99,1.48,2.41,1.48,4.26v52.98c0,1.86-.49,3.28-1.48,4.26Z"/>
    <path class="cls-1" d="m767.21,128.77c-4.96-2.99-8.84-7.02-11.66-12.09-2.81-5.07-4.22-10.63-4.22-16.66s1.41-11.5,4.22-16.57c2.81-5.07,6.7-9.1,11.66-12.09,4.96-2.99,10.45-4.48,16.49-4.48,4.23,0,8.15.75,11.74,2.26,3.6,1.51,6.87,3.65,9.83,6.44,1.39,1.33,2.03,2.68,1.91,4.05-.12,1.36-.93,2.65-2.44,3.87l-.26.17c-1.39,1.1-2.73,1.6-4,1.48-1.28-.12-2.61-.81-4-2.09-1.86-1.74-3.8-3.03-5.83-3.87-2.03-.84-4.35-1.26-6.96-1.26-4.12,0-7.76.94-10.92,2.83-3.16,1.89-5.63,4.51-7.39,7.87-1.77,3.36-2.65,7.16-2.65,11.4s.87,8.12,2.61,11.48c1.74,3.36,4.2,5.99,7.4,7.87,3.19,1.89,6.84,2.83,10.96,2.83v11.05c-6.03,0-11.53-1.49-16.49-4.48Zm33.32-13.48c1.25-.14,2.57.3,3.96,1.35l.26.17c1.57,1.16,2.42,2.45,2.57,3.87.14,1.42-.48,2.77-1.87,4.05-2.9,2.61-6.21,4.68-9.92,6.22-3.71,1.54-7.66,2.31-11.83,2.31-6.03,0-11.53-1.49-16.49-4.48-4.96-2.99-8.84-7.02-11.66-12.09-2.81-5.07-4.22-10.63-4.22-16.66s1.41-11.5,4.22-16.57c2.81-5.07,6.7-9.1,11.66-12.09,4.96-2.99,10.45-4.48,16.49-4.48v11.05c-4.12,0-7.76.94-10.92,2.83-3.16,1.89-5.63,4.51-7.39,7.87-1.77,3.36-2.65,7.16-2.65,11.4s.87,8.12,2.61,11.48c1.74,3.36,4.2,5.99,7.4,7.87,3.19,1.89,6.84,2.83,10.96,2.83,2.55,0,4.88-.42,7-1.26,2.12-.84,4.07-2.04,5.87-3.61,1.39-1.22,2.71-1.9,3.96-2.04Z"/>
  </g>
  <g>
    <path class="cls-1" d="m462.95,196.96c-.53-.53-.8-1.31-.8-2.32v-27.07c0-.61.17-1.08.5-1.41.33-.33.8-.5,1.41-.5h.04c.63,0,1.12.17,1.45.5.33.33.5.8.5,1.41v30.19h-.78c-1.01,0-1.78-.27-2.32-.8Zm17.56-2.49c.32.32.48.78.48,1.39v.04c0,.61-.16,1.07-.48,1.39-.32.32-.78.48-1.39.48h-13.6v-3.77h13.6c.61,0,1.07.16,1.39.48Z"/>
    <path class="cls-1" d="m487.47,196.63c-1.75-1.07-3.12-2.52-4.11-4.35-1-1.83-1.49-3.83-1.49-6s.5-4.16,1.49-6c1-1.83,2.37-3.28,4.11-4.35,1.75-1.07,3.7-1.6,5.87-1.6s3.98.58,5.61,1.75c1.63,1.17,2.88,2.67,3.75,4.5.87,1.83,1.3,3.73,1.3,5.7s-.43,3.86-1.3,5.7-2.12,3.33-3.75,4.5c-1.63,1.17-3.5,1.75-5.61,1.75s-4.12-.53-5.87-1.6Zm10.37-2.88c1.24-.74,2.22-1.75,2.92-3.05.71-1.3,1.06-2.77,1.06-4.42s-.35-3.12-1.06-4.44c-.71-1.31-1.68-2.33-2.92-3.05s-2.66-1.08-4.24-1.08c-1.42,0-2.72.37-3.92,1.1-1.2.74-2.14,1.76-2.81,3.08-.68,1.31-1.02,2.78-1.02,4.4s.34,3.08,1.02,4.37c.68,1.3,1.61,2.32,2.79,3.08,1.18.75,2.5,1.13,3.94,1.13,1.59,0,3-.37,4.24-1.1Zm7.06,3.53c-.32.32-.78.48-1.39.48h-.13c-.61,0-1.07-.16-1.39-.48-.32-.32-.48-.78-.48-1.39v-6.19l.91-3.29-.91-3.29v-6.45c0-.61.16-1.07.48-1.39.32-.32.78-.48,1.39-.48h.13c.61,0,1.07.16,1.39.48.32.32.48.78.48,1.39v19.23c0,.61-.16,1.07-.48,1.39Z"/>
    <path class="cls-1" d="m527.57,175.28c.33-.32.79-.48,1.36-.48h.09c.61,0,1.07.16,1.39.48.32.32.48.78.48,1.39v10.09c0,2.25-.43,4.24-1.3,5.98-.87,1.73-2.08,3.08-3.64,4.05-1.56.97-3.32,1.45-5.28,1.45s-3.74-.48-5.24-1.45c-1.5-.97-2.66-2.32-3.46-4.07s-1.21-3.73-1.21-5.96v-10.09c0-.61.17-1.07.5-1.39.33-.32.79-.48,1.36-.48h.04c.61,0,1.07.16,1.39.48.32.32.48.78.48,1.39v10.09c0,1.73.24,3.18.71,4.35.48,1.17,1.17,2.04,2.08,2.62s2.03.87,3.36.87,2.48-.3,3.44-.89c.97-.59,1.7-1.47,2.21-2.64.5-1.17.76-2.6.76-4.31v-10.09c0-.61.17-1.07.5-1.39Z"/>
    <path class="cls-1" d="m537.64,181.62c.95-2.21,2.29-3.98,4.03-5.31,1.73-1.33,3.7-1.99,5.89-1.99,1.5,0,2.92.43,4.25,1.28,1.33.85,2.4,2.06,3.2,3.62.81,1.56,1.21,3.29,1.21,5.2v11.48c0,.58-.16,1.03-.48,1.36-.32.33-.78.5-1.39.5h-.04c-.58,0-1.03-.17-1.36-.5-.33-.33-.5-.79-.5-1.36v-11.48c0-1.3-.28-2.43-.82-3.4-.55-.97-1.26-1.72-2.14-2.25-.88-.53-1.81-.8-2.79-.8-1.36,0-2.53.33-3.53.97s-1.78,1.6-2.34,2.86c-.56,1.26-.84,2.78-.84,4.57l-3.77,2.34c0-2.51.48-4.87,1.43-7.08Zm1.86,15.63c-.32.33-.78.5-1.39.5h-.04c-.58,0-1.03-.17-1.36-.5-.33-.33-.5-.79-.5-1.36v-19.23c0-.61.17-1.07.5-1.39.33-.32.79-.48,1.36-.48h.04c.61,0,1.07.16,1.39.48.32.32.48.78.48,1.39v19.23c0,.58-.16,1.03-.48,1.36Z"/>
    <path class="cls-1" d="m580.08,191.13c.38-.06.79.07,1.26.39l.17.09c.49.35.77.74.84,1.19.07.45-.11.87-.54,1.28-1.13,1.24-2.47,2.25-4.03,3.01-1.56.76-3.23,1.15-5.02,1.15-2.17,0-4.17-.53-6-1.6-1.83-1.07-3.28-2.52-4.35-4.35-1.07-1.83-1.6-3.83-1.6-6s.53-4.16,1.6-6c1.07-1.83,2.52-3.28,4.35-4.35,1.83-1.07,3.83-1.6,6-1.6,1.82,0,3.52.38,5.11,1.13,1.59.75,2.93,1.79,4.03,3.12.38.43.52.87.43,1.3-.09.43-.38.81-.87,1.13l-.26.13c-.43.26-.84.35-1.21.28s-.78-.3-1.21-.67c-.75-.95-1.63-1.65-2.64-2.1s-2.14-.67-3.38-.67c-1.56,0-2.97.35-4.22,1.06-1.26.71-2.23,1.69-2.92,2.94-.69,1.26-1.04,2.69-1.04,4.31s.35,3.05,1.04,4.31c.69,1.26,1.67,2.24,2.92,2.94,1.26.71,2.66,1.06,4.22,1.06,1.24,0,2.38-.25,3.4-.74s1.93-1.17,2.71-2.04c.43-.4.84-.63,1.21-.69Z"/>
    <path class="cls-1" d="m589.95,197.26c-.32.33-.78.5-1.39.5h-.04c-.58,0-1.03-.17-1.36-.5-.33-.33-.5-.79-.5-1.36v-29.1c0-.61.17-1.07.5-1.39.33-.32.79-.48,1.36-.48h.04c.61,0,1.07.16,1.39.48.32.32.48.78.48,1.39v29.1c0,.58-.16,1.03-.48,1.36Zm-1.86-15.63c.95-2.21,2.29-3.98,4.03-5.31,1.73-1.33,3.7-1.99,5.89-1.99,1.5,0,2.92.43,4.25,1.28,1.33.85,2.4,2.06,3.2,3.62.81,1.56,1.21,3.29,1.21,5.2v11.48c0,.58-.16,1.03-.48,1.36-.32.33-.78.5-1.39.5h-.04c-.58,0-1.03-.17-1.36-.5-.33-.33-.5-.79-.5-1.36v-11.48c0-1.3-.28-2.43-.82-3.4-.55-.97-1.26-1.72-2.14-2.25-.88-.53-1.81-.8-2.79-.8-1.36,0-2.53.33-3.53.97s-1.78,1.6-2.34,2.86c-.56,1.26-.84,2.78-.84,4.57l-3.77,2.34c0-2.51.48-4.87,1.43-7.08Z"/>
    <path class="cls-1" d="m634,186.48c-.49.5-1.18.76-2.08.76h-.74c0-2.11-.35-3.88-1.04-5.31-.69-1.43-1.64-2.49-2.84-3.18-1.2-.69-2.55-1.04-4.05-1.04-1.73,0-3.23.35-4.48,1.04-1.26.69-2.22,1.68-2.9,2.97-.68,1.29-1.02,2.79-1.02,4.53s.34,3.29,1.02,4.59c.68,1.3,1.67,2.3,2.97,2.99,1.3.69,2.86,1.04,4.68,1.04,1.36,0,2.62-.31,3.79-.93,1.17-.62,2.1-1.46,2.79-2.53.46-.4.87-.63,1.23-.69.36-.06.77.04,1.23.3l.13.09c.49.35.77.74.84,1.17.07.43-.09.85-.5,1.26-1.13,1.44-2.53,2.59-4.2,3.44-1.67.85-3.45,1.28-5.33,1.28-2.43,0-4.56-.52-6.41-1.56-1.85-1.04-3.28-2.47-4.31-4.29-1.03-1.82-1.54-3.87-1.54-6.15s.51-4.32,1.54-6.13c1.02-1.8,2.45-3.22,4.27-4.24,1.82-1.03,3.88-1.54,6.19-1.54,1.82,0,3.51.38,5.09,1.15,1.57.77,2.91,1.91,4.01,3.42s1.8,3.36,2.12,5.52c.17.87.01,1.55-.48,2.06Zm-2.34.76h-17.97v-3.12h17.97v3.12Z"/>
    <path class="cls-1" d="m640.34,182.21c.82-2.02,1.97-3.72,3.44-5.09s3.12-2.23,4.94-2.58c.58-.12,1.04-.02,1.39.28.35.3.52.74.52,1.32v.09c0,.55-.14.97-.41,1.28-.28.3-.69.5-1.23.58-1.21.15-2.28.57-3.21,1.28-.92.71-1.64,1.66-2.14,2.86-.51,1.2-.76,2.58-.76,4.14l-3.77,2.34c0-2.31.41-4.47,1.23-6.5Zm2.06,15.07c-.32.32-.78.48-1.39.48h-.04c-.61,0-1.07-.16-1.39-.48-.32-.32-.48-.78-.48-1.39v-19.23c0-.61.16-1.07.48-1.39s.78-.48,1.39-.48h.04c.61,0,1.07.16,1.39.48.32.32.48.78.48,1.39v19.23c0,.61-.16,1.07-.48,1.39Z"/>
  </g>
  <g>
    <path class="cls-3" d="m674.68,197.82c-.18-.19-.28-.45-.28-.8v-8.96c0-.35.09-.62.28-.8.19-.18.45-.28.8-.28h.27v11.12h-.27c-.35,0-.62-.09-.8-.28Zm.65-6.19h2.48c.63,0,1.11-.16,1.46-.46.34-.31.51-.72.51-1.23,0-.33-.08-.62-.23-.86-.16-.25-.38-.44-.67-.58-.29-.14-.64-.21-1.06-.21h-2.28v-1.31h2.28c.62,0,1.18.13,1.69.4.5.27.9.62,1.2,1.07.29.45.44.94.44,1.48s-.15,1.04-.44,1.47c-.29.43-.69.76-1.19,1s-1.07.35-1.7.35h-2.48v-1.12Zm.2,5.16h2.57c.44,0,.83-.09,1.18-.27.35-.18.62-.42.82-.73.2-.3.3-.64.3-1s-.1-.71-.3-1.02c-.2-.31-.47-.56-.82-.74-.34-.18-.74-.28-1.18-.28h-2.57v-1.12h2.57c.64,0,1.24.14,1.8.42.56.28,1.01.66,1.35,1.14.34.48.51,1.01.51,1.59s-.17,1.14-.51,1.64c-.34.51-.79.91-1.35,1.22-.56.3-1.16.46-1.8.46h-2.57v-1.3Z"/>
    <path class="cls-3" d="m685.99,197.85l-3.12-6.95c-.1-.22-.09-.4.02-.54.11-.14.27-.21.5-.21h.04c.37,0,.62.17.75.5l3.01,6.97-1.2.23Zm-.55,3.56c-.13.08-.28.11-.47.11h-.06c-.25,0-.42-.07-.51-.2-.09-.14-.09-.32,0-.55l4.53-10.14c.14-.32.39-.48.76-.48h.03c.23,0,.4.07.51.21.11.14.12.32.03.54l-4.53,10.14c-.07.17-.17.29-.29.37Z"/>
    <path class="cls-3" d="m696.44,195.33c.09-.14.25-.24.47-.28h.08c.18-.04.33-.02.44.05.11.07.23.21.35.4.28.56.72.98,1.32,1.25.6.28,1.22.35,1.87.23.64-.12,1.17-.44,1.57-.95.26-.35.4-.73.41-1.13.02-.41-.1-.77-.34-1.09s-.59-.54-1.03-.64c-.26-.07-.75-.16-1.47-.27-.16-.02-.49-.07-.98-.15-.73-.12-1.31-.46-1.75-1.03-.44-.56-.65-1.2-.63-1.9.01-.71.26-1.32.73-1.85.54-.6,1.2-.97,1.98-1.1.78-.14,1.54-.05,2.28.25s1.33.76,1.77,1.38c.13.18.17.35.11.51-.06.16-.18.28-.38.36l-.06.03c-.18.08-.34.09-.47.04-.14-.05-.28-.17-.43-.34-.3-.39-.68-.68-1.14-.86s-.93-.22-1.4-.13c-.47.09-.89.34-1.24.73-.28.31-.42.66-.43,1.06-.01.4.11.75.35,1.07.24.32.59.51,1.04.59.15.03.3.06.45.08.15.03.33.05.53.07.63.08,1.16.18,1.59.29.75.22,1.32.6,1.72,1.14.4.54.59,1.15.58,1.82-.01.67-.23,1.29-.65,1.84-.58.77-1.37,1.24-2.38,1.41s-1.97.04-2.9-.4c-.92-.43-1.58-1.08-1.96-1.94-.1-.2-.1-.37,0-.52Z"/>
    <path class="cls-3" d="m707.02,188.45c-.11.12-.27.17-.48.17h-.01c-.2,0-.36-.06-.47-.17-.12-.12-.17-.27-.17-.47v-.6c0-.21.06-.37.17-.48.11-.11.27-.17.47-.17h.01c.21,0,.37.06.48.17.11.11.16.27.16.48v.6c0,.2-.05.36-.16.47Zm0,9.48c-.11.12-.27.17-.48.17h-.01c-.2,0-.36-.06-.47-.17-.12-.11-.17-.27-.17-.47v-6.66c0-.21.06-.37.17-.48.11-.11.27-.17.47-.17h.01c.21,0,.37.06.48.17.11.11.16.27.16.48v6.66c0,.2-.05.36-.16.47Z"/>
    <path class="cls-3" d="m709.54,192.51c.31-.76.75-1.38,1.33-1.84s1.25-.69,2.03-.69c.49,0,.94.15,1.35.44s.74.7.98,1.23c.24.53.37,1.14.37,1.83v3.98c0,.2-.05.36-.16.47-.11.12-.27.17-.48.17h-.02c-.2,0-.36-.06-.47-.17-.12-.11-.17-.27-.17-.47v-3.98c0-.47-.08-.88-.23-1.21s-.36-.59-.62-.76-.54-.26-.85-.26c-.46,0-.86.11-1.19.33-.33.22-.58.55-.76.99-.18.44-.26.97-.26,1.59l-1.31.81c0-.87.15-1.69.46-2.45Zm.67,5.42c-.11.12-.27.17-.48.17h-.01c-.2,0-.36-.06-.47-.17-.12-.11-.17-.27-.17-.47v-6.66c0-.21.06-.37.17-.48.12-.11.27-.17.47-.17h.01c.21,0,.37.06.48.17.11.11.17.27.17.48v6.66c0,.2-.06.36-.17.47Zm4.55-5.42c.31-.76.76-1.38,1.34-1.84s1.26-.69,2.03-.69c.48,0,.93.14,1.34.42.42.28.75.68.99,1.2.25.52.37,1.12.37,1.82v4.04c0,.2-.06.36-.17.47-.11.12-.27.17-.48.17h-.03c-.2,0-.36-.06-.47-.17-.12-.11-.17-.27-.17-.47v-4.04c0-.47-.08-.87-.23-1.2-.15-.33-.35-.58-.61-.74-.26-.16-.55-.24-.86-.24-.47,0-.87.11-1.2.34s-.58.55-.76.99c-.18.43-.26.97-.26,1.6l-1.3.81c0-.88.16-1.7.47-2.47Z"/>
    <path class="cls-3" d="m723.82,201.35c-.11.12-.27.17-.48.17h-.01c-.2,0-.36-.06-.47-.17-.12-.11-.17-.27-.17-.47v-10.08c0-.21.06-.37.17-.48.12-.11.27-.17.47-.17h.01c.21,0,.37.06.48.17.11.11.17.27.17.48v2.13l-.29,1.17.29,1.21v5.57c0,.2-.06.36-.17.47Zm5.03-10.81c.6.37,1.08.87,1.42,1.51.34.64.52,1.33.52,2.08s-.17,1.44-.52,2.08-.82,1.14-1.42,1.51c-.61.37-1.28.55-2.03.55s-1.38-.2-1.94-.61c-.57-.41-1-.92-1.3-1.56-.3-.63-.45-1.29-.45-1.97s.15-1.34.45-1.97.73-1.16,1.3-1.56c.56-.4,1.21-.61,1.94-.61s1.43.19,2.03.56Zm-3.59,1c-.43.25-.77.61-1.01,1.06s-.37.96-.37,1.53.12,1.08.37,1.54.58.81,1.01,1.06.92.38,1.47.38c.49,0,.94-.13,1.36-.38.41-.25.74-.61.97-1.06.23-.46.35-.96.35-1.52s-.12-1.07-.35-1.52c-.24-.45-.56-.8-.97-1.06s-.87-.39-1.36-.39c-.55,0-1.04.13-1.47.38Z"/>
    <path class="cls-3" d="m732.94,197.82c-.19-.19-.28-.45-.28-.8v-8.96c0-.35.09-.62.28-.8s.45-.28.8-.28h.27v11.12h-.27c-.35,0-.62-.09-.8-.28Zm6.13-10.68c.11.1.16.27.16.49h0c0,.22-.05.38-.16.5-.11.11-.27.17-.48.17h-4.74v-1.31h4.74c.21,0,.37.05.48.16Zm-.48,4.92c.1.09.15.25.15.46v.03c0,.19-.05.34-.15.44-.1.1-.25.16-.45.16h-4.29v-1.23h4.29c.2,0,.35.05.45.14Zm.48,4.89c.11.1.16.27.16.49v.02c0,.21-.05.37-.16.48-.11.11-.27.17-.48.17h-4.74v-1.3h4.74c.21,0,.37.05.48.16Z"/>
    <path class="cls-3" d="m742.46,197.93c-.12.12-.28.17-.5.17h-.01c-.21,0-.37-.06-.49-.17s-.17-.28-.17-.49v-9.38c0-.35.09-.62.28-.8s.45-.28.8-.28h.27v10.46c0,.21-.06.37-.17.49Zm-.05-5.75h2.46c.41,0,.77-.09,1.09-.26s.57-.41.75-.71.27-.62.27-.98-.09-.68-.27-.97-.43-.52-.75-.7c-.32-.17-.68-.26-1.09-.26h-2.48v-1.31h2.48c.64,0,1.22.15,1.75.46.53.3.95.71,1.26,1.21s.46,1.03.46,1.58-.16,1.06-.46,1.57-.73.92-1.26,1.23c-.53.31-1.12.47-1.75.47h-2.46v-1.32Zm3.34.62l2.55,4.45c.14.25.17.46.08.62-.09.16-.26.24-.53.24h-.04c-.2,0-.37-.05-.52-.16-.14-.11-.27-.26-.38-.47l-2.55-4.68h1.39Z"/>
    <path class="cls-3" d="m751.7,197.93c-.12.12-.28.17-.5.17h-.01c-.21,0-.37-.06-.49-.17s-.17-.28-.17-.49v-9.38c0-.35.09-.62.28-.8s.45-.28.8-.28h.27v10.46c0,.21-.06.37-.17.49Zm-.05-5.75h2.46c.41,0,.77-.09,1.09-.26s.57-.41.75-.71.27-.62.27-.98-.09-.68-.27-.97-.43-.52-.75-.7c-.32-.17-.68-.26-1.09-.26h-2.48v-1.31h2.48c.64,0,1.22.15,1.75.46.53.3.95.71,1.26,1.21s.46,1.03.46,1.58-.16,1.06-.46,1.57-.73.92-1.26,1.23c-.53.31-1.12.47-1.75.47h-2.46v-1.32Zm3.34.62l2.55,4.45c.14.25.17.46.08.62-.09.16-.26.24-.53.24h-.04c-.2,0-.37-.05-.52-.16-.14-.11-.27-.26-.38-.47l-2.55-4.68h1.39Z"/>
    <path class="cls-3" d="m762.08,197.5c-.88-.51-1.57-1.2-2.08-2.07-.52-.87-.77-1.83-.77-2.87s.26-2,.77-2.88c.51-.88,1.21-1.58,2.09-2.09.88-.51,1.83-.77,2.86-.77s1.99.26,2.87.77c.88.52,1.58,1.21,2.09,2.09.51.88.77,1.84.77,2.88s-.26,2-.77,2.87c-.52.87-1.21,1.56-2.08,2.07-.88.51-1.83.76-2.87.76s-2-.25-2.87-.76Zm5.09-1.09c.66-.38,1.18-.91,1.56-1.58s.57-1.43.57-2.27-.19-1.6-.57-2.28c-.38-.68-.9-1.21-1.57-1.6s-1.4-.58-2.21-.58-1.55.2-2.21.58-1.19.92-1.57,1.6c-.38.68-.57,1.44-.57,2.28s.19,1.6.57,2.27c.38.67.9,1.2,1.56,1.58s1.4.58,2.22.58,1.56-.19,2.22-.58Z"/>
    <path class="cls-3" d="m773.72,197.93c-.12.12-.28.17-.5.17h-.01c-.21,0-.37-.06-.49-.17s-.17-.28-.17-.49v-9.38c0-.35.09-.62.28-.8s.45-.28.8-.28h.27v10.46c0,.21-.06.37-.17.49Zm-.05-5.75h2.46c.41,0,.77-.09,1.09-.26s.57-.41.75-.71.27-.62.27-.98-.09-.68-.27-.97-.43-.52-.75-.7c-.32-.17-.68-.26-1.09-.26h-2.48v-1.31h2.48c.64,0,1.22.15,1.75.46.53.3.95.71,1.26,1.21s.46,1.03.46,1.58-.16,1.06-.46,1.57-.73.92-1.26,1.23c-.53.31-1.12.47-1.75.47h-2.46v-1.32Zm3.34.62l2.55,4.45c.14.25.17.46.08.62-.09.16-.26.24-.53.24h-.04c-.2,0-.37-.05-.52-.16-.14-.11-.27-.26-.38-.47l-2.55-4.68h1.39Z"/>
    <path class="cls-3" d="m787.57,199.73c.11.1.16.26.16.46v.03c0,.19-.05.34-.16.45-.1.11-.26.17-.46.17h-6.27c-.19,0-.34-.06-.45-.17-.11-.11-.17-.26-.17-.45v-.03c0-.2.06-.35.17-.46.11-.11.26-.16.45-.16h6.27c.2,0,.35.05.46.16Z"/>
  </g>
</svg>