<?xml version="1.0" encoding="UTF-8"?>
<svg id="_图层_1" data-name="图层 1" xmlns="http://www.w3.org/2000/svg" xmlns:xlink="http://www.w3.org/1999/xlink" viewBox="0 0 1000 255">
  <defs>
    <style>
      .cls-1 {
        fill: #fff;
      }

      .cls-2 {
        fill: #0087ff;
      }

      .cls-3 {
        fill: url(#_未命名的渐变_40);
      }

      .cls-4 {
        fill: url(#_未命名的渐变_2);
      }

      .cls-5 {
        fill: #a4c6fc;
      }
    </style>
    <linearGradient id="_未命名的渐变_40" data-name="未命名的渐变 40" x1="680.21" y1="-184.63" x2="319.79" y2="439.63" gradientTransform="translate(0 255) scale(1 -1)" gradientUnits="userSpaceOnUse">
      <stop offset="0" stop-color="#94a7ff"/>
      <stop offset="1" stop-color="#7fc5ff"/>
    </linearGradient>
    <linearGradient id="_未命名的渐变_2" data-name="未命名的渐变 2" x1="265.11" y1="74.08" x2="294.73" y2="103.71" gradientTransform="translate(0 255) scale(1 -1)" gradientUnits="userSpaceOnUse">
      <stop offset=".09" stop-color="#4488f5"/>
      <stop offset=".92" stop-color="#67c9f5"/>
    </linearGradient>
  </defs>
  <rect class="cls-3" width="1000" height="255"/>
  <g>
    <path class="cls-2" d="m62.71,110.98c-2.27,0-4.42-.38-6.43-1.15-2.02-.77-3.8-1.93-5.35-3.48-1.55-1.55-2.77-3.47-3.65-5.76-.88-2.29-1.32-4.94-1.32-7.94s.46-5.62,1.37-7.94c.91-2.32,2.16-4.28,3.74-5.88s3.4-2.82,5.45-3.65c2.05-.83,4.21-1.25,6.48-1.25s4.42.46,6.26,1.39c1.84.93,3.37,2.02,4.58,3.26l-4.46,5.47c-.9-.83-1.84-1.5-2.83-2.02-.99-.51-2.13-.77-3.41-.77-1.54,0-2.94.44-4.22,1.32-1.28.88-2.3,2.14-3.05,3.79-.75,1.65-1.13,3.64-1.13,5.98s.34,4.39,1.03,6.07c.69,1.68,1.66,2.96,2.9,3.84,1.25.88,2.7,1.32,4.37,1.32,1.44,0,2.73-.32,3.86-.96,1.14-.64,2.12-1.41,2.95-2.3l4.51,5.38c-1.5,1.76-3.24,3.08-5.21,3.96s-4.12,1.32-6.46,1.32Z"/>
    <path class="cls-2" d="m83.2,79.21c-1.44,0-2.59-.4-3.46-1.2-.86-.8-1.3-1.87-1.3-3.22s.43-2.37,1.3-3.17c.86-.8,2.02-1.2,3.46-1.2s2.55.4,3.43,1.2c.88.8,1.32,1.86,1.32,3.17s-.44,2.42-1.32,3.22c-.88.8-2.02,1.2-3.43,1.2Zm-4.27,31.1v-27.31h8.54v27.31h-8.54Z"/>
    <path class="cls-2" d="m101.25,110.98c-1.66,0-3.1-.38-4.32-1.13-1.22-.75-2.15-1.76-2.81-3.02-.66-1.26-.98-2.65-.98-4.15,0-2.88,1.2-5.13,3.6-6.74,2.4-1.62,6.25-2.71,11.57-3.29-.06-.74-.24-1.37-.53-1.9-.29-.53-.73-.93-1.32-1.2-.59-.27-1.35-.41-2.28-.41-1.09,0-2.21.21-3.36.62-1.15.42-2.42,1.01-3.79,1.78l-2.98-5.62c1.22-.74,2.46-1.37,3.72-1.9,1.26-.53,2.57-.94,3.91-1.25,1.34-.3,2.72-.46,4.13-.46,2.37,0,4.37.45,6,1.34,1.63.9,2.88,2.26,3.74,4.1.86,1.84,1.3,4.18,1.3,7.03v15.5h-6.96l-.58-2.74h-.24c-1.12.99-2.33,1.81-3.62,2.45s-2.7.96-4.2.96Zm2.93-6.62c.86,0,1.62-.19,2.26-.58.64-.38,1.26-.91,1.87-1.58v-4.37c-1.76.22-3.16.54-4.2.96-1.04.42-1.78.9-2.21,1.44-.43.54-.65,1.14-.65,1.78,0,.8.26,1.39.79,1.78.53.38,1.24.58,2.14.58Z"/>
    <path class="cls-2" d="m131.2,110.98c-1.95,0-3.5-.4-4.63-1.2-1.14-.8-1.94-1.92-2.42-3.36-.48-1.44-.72-3.1-.72-4.99v-29.47h8.54v29.76c0,.9.17,1.51.5,1.85s.66.5.98.5c.16,0,.3,0,.43-.02.13-.02.3-.04.53-.07l1.01,6.29c-.45.19-1.02.36-1.73.5s-1.54.22-2.5.22Z"/>
    <path class="cls-2" d="m147.14,110.98c-1.95,0-3.5-.4-4.63-1.2-1.14-.8-1.94-1.92-2.42-3.36-.48-1.44-.72-3.1-.72-4.99v-29.47h8.54v29.76c0,.9.17,1.51.5,1.85s.66.5.98.5c.16,0,.3,0,.43-.02.13-.02.3-.04.53-.07l1.01,6.29c-.45.19-1.02.36-1.73.5s-1.54.22-2.5.22Z"/>
    <path class="cls-2" d="m167.15,110.98c-2.3,0-4.48-.57-6.53-1.7-2.05-1.14-3.7-2.78-4.97-4.92-1.26-2.14-1.9-4.72-1.9-7.73s.63-5.58,1.9-7.7c1.26-2.13,2.92-3.76,4.97-4.9,2.05-1.14,4.22-1.7,6.53-1.7,1.73,0,3.39.32,4.99.96,1.6.64,3.02,1.58,4.27,2.81,1.25,1.23,2.24,2.73,2.98,4.49.74,1.76,1.1,3.78,1.1,6.05,0,3.01-.63,5.58-1.9,7.73-1.26,2.14-2.91,3.78-4.94,4.92-2.03,1.14-4.2,1.7-6.5,1.7Zm0-6.91c1.06,0,1.93-.3,2.62-.91.69-.61,1.19-1.47,1.51-2.59.32-1.12.48-2.43.48-3.94s-.16-2.81-.48-3.91c-.32-1.1-.82-1.96-1.51-2.57-.69-.61-1.56-.91-2.62-.91s-1.93.3-2.62.91c-.69.61-1.2,1.46-1.54,2.57s-.5,2.41-.5,3.91.17,2.82.5,3.94c.34,1.12.85,1.98,1.54,2.59.69.61,1.56.91,2.62.91Z"/>
    <path class="cls-2" d="m203.78,94.52c-.9-.99-1.81-1.76-2.74-2.3-.93-.54-2.19-.82-3.79-.82-1.38,0-2.65.5-3.82,1.49-1.17.99-2.18,2.29-3.05,3.89l-6.29-3.46c1.66-3.1,3.65-5.4,5.95-6.89,2.3-1.49,4.75-2.23,7.34-2.23,2.37,0,4.5.44,6.38,1.32,1.89.88,3.65,2.25,5.28,4.1.9.99,1.82,1.76,2.76,2.3.94.54,2.2.82,3.77.82,1.38,0,2.65-.5,3.82-1.49,1.17-.99,2.18-2.29,3.05-3.89l6.29,3.46c-1.67,3.1-3.65,5.4-5.95,6.89-2.3,1.49-4.75,2.23-7.34,2.23-2.34,0-4.46-.44-6.36-1.32-1.9-.88-3.67-2.25-5.3-4.1Z"/>
    <path class="cls-2" d="m241.55,120.15c-2.3-3.78-4.09-7.7-5.35-11.76-1.26-4.06-1.9-8.51-1.9-13.34s.63-9.28,1.9-13.34c1.26-4.06,3.05-7.98,5.35-11.76l5.33,2.21c-1.98,3.55-3.43,7.3-4.34,11.23-.91,3.94-1.37,7.82-1.37,11.66s.46,7.77,1.37,11.69,2.36,7.66,4.34,11.21l-5.33,2.21Z"/>
    <path class="cls-2" d="m267.71,103.11h24.67v5.76h-38.3v-.19l31.3-31.49,4.08,4.08-21.74,21.7v.14Z"/>
    <path class="cls-2" d="m309.62,85.35c1.25,0,2.38.3,3.38.91,1.01.61,1.82,1.42,2.42,2.42s.91,2.14.91,3.38-.3,2.34-.91,3.36c-.61,1.02-1.42,1.84-2.42,2.45-1.01.61-2.14.91-3.38.91s-2.34-.3-3.36-.91c-1.02-.61-1.84-1.42-2.45-2.45-.61-1.02-.91-2.14-.91-3.36s.3-2.38.91-3.38c.61-1.01,1.42-1.82,2.45-2.42,1.02-.61,2.14-.91,3.36-.91Z"/>
    <path class="cls-2" d="m334.58,110.98c-2.21,0-4.13-.57-5.76-1.7-1.63-1.14-2.89-2.8-3.77-4.99-.88-2.19-1.32-4.87-1.32-8.04,0-1.44.18-2.98.55-4.63.37-1.65.86-3.28,1.49-4.9.62-1.62,1.32-3.08,2.09-4.39l8.06,3.02c-.86,1.47-1.6,2.9-2.21,4.27-.61,1.38-1.07,2.74-1.39,4.1-.32,1.36-.48,2.76-.48,4.2,0,1.79.25,3.26.74,4.42.5,1.15,1.3,1.73,2.42,1.73.77,0,1.4-.18,1.9-.55.5-.37.87-.91,1.13-1.63.26-.72.38-1.61.38-2.66,0-.86-.03-1.64-.1-2.33-.06-.69-.14-1.42-.24-2.18s-.22-1.68-.38-2.74h8.98c-.13,1.06-.25,1.97-.36,2.74-.11.77-.2,1.5-.26,2.18-.06.69-.1,1.46-.1,2.33,0,1.18.11,2.14.34,2.86.22.72.57,1.23,1.03,1.54.46.3,1.05.46,1.75.46.93,0,1.69-.64,2.28-1.92.59-1.28.89-3.12.89-5.52,0-1.44-.1-2.75-.29-3.94-.19-1.18-.54-2.38-1.03-3.58-.5-1.2-1.18-2.52-2.04-3.96l7.82-2.83c.8,1.31,1.5,2.67,2.11,4.08.61,1.41,1.09,2.9,1.44,4.49s.53,3.3.53,5.16c0,3.14-.4,5.82-1.2,8.04s-1.98,3.93-3.55,5.11c-1.57,1.18-3.49,1.78-5.76,1.78-1.63,0-3.18-.38-4.66-1.15-1.47-.77-2.59-2.13-3.36-4.08h-.19c-.74,1.95-1.76,3.31-3.07,4.08-1.31.77-2.78,1.15-4.42,1.15Z"/>
    <path class="cls-2" d="m390.3,104.79l-25.49-9.79v-5.86l25.49-9.79v7.01l-9.36,3.02-7.49,2.59v.19l7.49,2.59,9.36,3.02v7.01Z"/>
    <path class="cls-2" d="m411.23,120.15l-5.33-2.21c1.98-3.55,3.43-7.29,4.34-11.21s1.37-7.82,1.37-11.69-.46-7.73-1.37-11.66c-.91-3.94-2.36-7.68-4.34-11.23l5.33-2.21c2.3,3.78,4.09,7.7,5.35,11.76,1.26,4.06,1.9,8.51,1.9,13.34s-.63,9.28-1.9,13.34c-1.26,4.06-3.05,7.98-5.35,11.76Z"/>
    <path class="cls-2" d="m446.37,69.32c3.58,0,6.83.45,9.74,1.34,2.91.9,5.49,2.06,7.73,3.48,2.24,1.42,4.14,2.95,5.71,4.58l-2.35,5.52c-1.6-1.47-3.41-2.85-5.42-4.13-2.02-1.28-4.29-2.31-6.82-3.1-2.53-.78-5.39-1.18-8.59-1.18s-6.02.39-8.57,1.18c-2.54.78-4.82,1.82-6.82,3.1-2,1.28-3.82,2.66-5.45,4.13l-2.35-5.52c1.57-1.63,3.47-3.16,5.71-4.58,2.24-1.42,4.82-2.58,7.73-3.48,2.91-.9,6.16-1.34,9.74-1.34Z"/>
    <path class="cls-2" d="m494.12,70.9h.48l5.18,16.08h16.7l.14.48-13.58,9.65,5.42,16.08-.38.29-13.73-10.08-13.73,10.08-.38-.29,5.42-16.08-13.58-9.65.14-.48h16.7l5.18-16.08Zm-10.27,18.38l-6.1-.38v.1l5.09,3.26,5.57,3.98-2.21,6.43-2.35,5.86.1.1,4.94-4.08,5.47-3.98,5.47,3.98,4.94,4.08.1-.1-2.35-5.86-2.21-6.43,5.57-3.98,5.09-3.26v-.1l-6.1.38h-6.72l-2.26-6.77-1.49-5.76h-.1l-1.54,5.76-2.21,6.77h-6.72Z"/>
  </g>
  <g>
    <path class="cls-1" d="m78.2,172.22c-1.52,0-2.96-.89-4.32-2.68-.53-.64-1.03-1.35-1.48-2.12-1.31,1.41-2.77,2.75-4.4,4l-1.4-1.64c1.76-1.28,3.37-2.69,4.84-4.24-1.23-2.72-2.21-6.41-2.96-11.08h-14.92v4.28c0,2.29-.13,4.23-.4,5.82s-.73,3.09-1.4,4.5c-.67,1.41-1.63,2.95-2.88,4.6l-1.84-1.16c1.28-1.63,2.23-3.08,2.86-4.36.63-1.28,1.06-2.67,1.3-4.16.24-1.49.36-3.44.36-5.84v-5.6h16.64l-.6-4.92h2.04c.27,2.29.48,3.93.64,4.92h6.32c-.51-.59-1.15-1.23-1.94-1.94-.79-.71-1.46-1.25-2.02-1.62l1.16-1.28c.56.4,1.29.99,2.18,1.78s1.59,1.45,2.1,1.98l-.88,1.08h4.36v1.92h-11c.64,3.87,1.43,6.97,2.36,9.32,1.63-2.05,3.13-4.6,4.52-7.64l1.8.76c-1.76,3.63-3.56,6.59-5.4,8.88.51.96,1.09,1.83,1.76,2.6.91,1.09,1.77,1.64,2.6,1.64.4,0,.71-.19.94-.56.23-.37.49-1.03.78-1.96.37-1.23.61-2.29.72-3.2l1.72.88c-.35,1.68-.67,2.92-.96,3.72-.37,1.12-.81,1.95-1.3,2.5-.49.55-1.13.82-1.9.82Zm-30.8,8.8c.93-1.09,1.83-2.33,2.68-3.72.85-1.39,1.56-2.71,2.12-3.96l1.84.72c-.59,1.39-1.3,2.79-2.14,4.2-.84,1.41-1.7,2.68-2.58,3.8l-1.92-1.04Zm7.64-22.92h12.72v1.68h-12.72v-1.68Zm1.16,4.52h10.04v7.52h-10.04v-7.52Zm15.52,13.8l.12-.88,1.96.76-.16.96c-.16,1.2-.33,2.09-.52,2.68-.16.64-.39,1.13-.68,1.48-.29.35-.75.61-1.36.78-.61.17-1.48.29-2.6.34-1.23.08-2.47.12-3.72.12s-2.51-.04-3.76-.12c-1.57-.08-2.67-.37-3.28-.86-.61-.49-.92-1.39-.92-2.7v-6.04l2.04.12v5.2c0,.91.18,1.51.54,1.8.36.29,1.07.48,2.14.56.75.05,1.87.08,3.36.08s2.61-.03,3.36-.08c1.15-.08,1.91-.23,2.3-.46.39-.23.65-.69.78-1.38.08-.27.21-1.05.4-2.36Zm-13.76-7.88h6.52v-4.4h-6.52v4.4Zm6.04,2.88c.61.53,1.43,1.32,2.44,2.36s1.76,1.85,2.24,2.44l-1.44,1.68c-.45-.69-1.18-1.59-2.18-2.68-1-1.09-1.79-1.89-2.38-2.4l1.32-1.4Zm12.56,1.76c.77.77,1.73,1.87,2.88,3.3s2.08,2.66,2.8,3.7l-1.68,1.4c-.61-1.04-1.49-2.29-2.62-3.74-1.13-1.45-2.13-2.61-2.98-3.46l1.6-1.2Z"/>
    <path class="cls-1" d="m97.04,173.34l.76,2-2.32,2c-1.49,1.33-2.33,2.07-2.52,2.2-.11.11-.29.28-.54.52-.25.24-.51.52-.78.84l-1.28-1.52c.35-.4.57-.72.68-.96.11-.24.16-.53.16-.88v-16.08h-4.16v-2.24h6.08v17.64l3.92-3.52Zm-3.2-16.64c-.56-.99-1.35-2.17-2.36-3.56-1.01-1.39-1.92-2.59-2.72-3.6l1.6-1.2c.77.91,1.67,2.05,2.68,3.42,1.01,1.37,1.8,2.54,2.36,3.5l-1.56,1.44Zm11.16-8.72c-.24,1.01-.63,2.39-1.16,4.12h5.2v26.92c0,1.01-.12,1.77-.36,2.26-.24.49-.63.85-1.18,1.06-.55.21-1.35.36-2.42.44l-2.4.2-.64-2.04,2.4-.16c.83-.08,1.42-.18,1.78-.3.36-.12.61-.33.74-.64.13-.31.2-.79.2-1.46v-6.56h-.8c-1.15,1.97-2.65,3.92-4.52,5.84-1.87,1.92-3.93,3.61-6.2,5.08l-1.24-1.68c2.05-1.23,3.93-2.65,5.62-4.28,1.69-1.63,3.09-3.28,4.18-4.96h-8.64v-1.96h2.8v-17.76h3.44c.24-.8.65-2.27,1.24-4.4l1.96.28Zm-4.76,10h6.92v-4.08h-6.92v4.08Zm0,5.76h6.92v-3.92h-6.92v3.92Zm0,1.88v4.24h6.92v-4.24h-6.92Zm13.52,6.72c-.4-1.23-1.01-2.87-1.84-4.92-.83-2.05-1.47-3.52-1.92-4.4l1.64-.72c.48.88,1.13,2.34,1.96,4.38.83,2.04,1.41,3.65,1.76,4.82l-1.6.84Zm8.68-15.36v2.12h-3.76v19.72c0,.99-.12,1.73-.36,2.24-.24.51-.63.87-1.18,1.1s-1.37.39-2.46.5l-2.52.2-.6-2.16,2.56-.2c.77-.08,1.33-.17,1.68-.28s.59-.31.72-.62c.13-.31.2-.79.2-1.46v-19.04h-6.56v-2.12h6.56v-9.12l1.96.08v9.04h3.76Z"/>
    <path class="cls-1" d="m136.59,148.15c-.77,1.97-1.85,4.09-3.24,6.36v15.56h-2v-12.64c-1.23,1.71-2.72,3.48-4.48,5.32l-1.2-1.76c1.81-1.87,3.53-4.03,5.16-6.5,1.63-2.47,2.84-4.75,3.64-6.86l2.12.52Zm-10.36,32.52c.8-1.04,1.68-2.42,2.64-4.14.96-1.72,1.71-3.23,2.24-4.54l1.84.76c-.56,1.36-1.31,2.92-2.26,4.68-.95,1.76-1.82,3.2-2.62,4.32l-1.84-1.08Zm17.48-20.84c-.99,1.65-2.09,3.27-3.32,4.86-1.23,1.59-2.45,2.97-3.68,4.14l-1.52-1.28c1.23-1.17,2.45-2.55,3.68-4.12,1.23-1.57,2.27-3.09,3.12-4.56l1.72.96Zm-7.76-1.72c1.47-1.57,2.83-3.33,4.08-5.26,1.25-1.93,2.24-3.77,2.96-5.5l1.92.52c-.48,1.2-1.11,2.48-1.88,3.84h16.96v1.96l-3.24,5.16-1.84-.84,2.76-4.24h-15.88c-1.36,2.11-2.79,3.97-4.28,5.6l-1.56-1.24Zm15.04,17.12l1.96.84c-.13,1.47-.31,2.73-.52,3.8-.21,1.04-.63,1.74-1.26,2.1-.63.36-1.7.58-3.22.66-1.28.08-2.57.12-3.88.12s-2.55-.04-3.88-.12c-1.04-.05-1.85-.2-2.44-.44-.59-.24-1.01-.65-1.28-1.24-.27-.59-.4-1.44-.4-2.56v-6.92l2.04.12v6.28c0,.75.08,1.31.24,1.68s.43.63.8.78c.37.15.92.25,1.64.3,1.12.08,2.25.12,3.4.12s2.24-.04,3.36-.12c1.15-.08,1.91-.25,2.3-.5.39-.25.63-.77.74-1.54.19-.93.32-2.05.4-3.36Zm-7.68-4.6c.51.48,1.24,1.28,2.2,2.4s1.69,2.03,2.2,2.72l-1.56,1.48c-.4-.69-1.06-1.62-1.98-2.78s-1.67-2.02-2.26-2.58l1.4-1.24Zm6.52-4.6c0,1.28-.31,2.17-.92,2.66s-1.72.81-3.32.94l-2.08.16-.68-2.04,2.4-.16c.72-.05,1.25-.15,1.6-.28.35-.13.59-.35.72-.66.13-.31.2-.77.2-1.38v-9.28l2.08.08v9.96Zm4.28-6.88c.88.88,2.03,2.19,3.46,3.92s2.57,3.21,3.42,4.44l-1.6,1.36c-.8-1.23-1.89-2.71-3.28-4.46-1.39-1.75-2.53-3.1-3.44-4.06l1.44-1.2Zm1.2,12c.88,1.01,1.96,2.43,3.24,4.24,1.28,1.81,2.28,3.33,3,4.56l-1.68,1.36c-.64-1.23-1.59-2.76-2.84-4.6s-2.35-3.31-3.28-4.4l1.56-1.16Z"/>
    <path class="cls-1" d="m189.63,180.15c3.44,0,7.35-.09,11.72-.28l-.52,2.04c-3.49.16-7.31.24-11.44.24-1.73,0-3-.01-3.8-.04-2.53-.05-4.55-.21-6.04-.46-1.49-.25-2.85-.73-4.06-1.44-1.21-.71-2.45-1.78-3.7-3.22l-.56.6c-1.2,1.39-2.72,3.04-4.56,4.96l-1.44-1.76,5.6-5.8v-11.6h-4.8v-2.08h6.92v13.96c1.15,1.33,2.26,2.34,3.34,3.02s2.29,1.14,3.64,1.38,3.13.39,5.34.44c.96.03,2.41.04,4.36.04Zm-17.2-22.68c-.61-1.07-1.42-2.32-2.42-3.76s-1.87-2.57-2.62-3.4l1.6-1.28c.75.83,1.61,1.91,2.6,3.26s1.83,2.58,2.52,3.7l-1.68,1.48Zm10.04,7.16h-6.68v-1.96h10.96v-6.6h-6.04c-.59,1.57-1.32,3.24-2.2,5l-2-.8c1.89-3.36,3.24-7.01,4.04-10.96l2.08.44c-.32,1.44-.72,2.88-1.2,4.32h5.32v-6.48l2.08.12v6.36h9.12v2h-9.12v6.6h10.8v1.96h-8.36v7.96c0,.91.13,1.51.38,1.8.25.29.79.47,1.62.52h1.92c.67-.05,1.13-.13,1.4-.24s.46-.3.58-.58.22-.77.3-1.46c.16-1.33.24-2.41.24-3.24l1.92.6c-.05,1.33-.15,2.44-.28,3.32-.13,1.01-.31,1.75-.54,2.22s-.59.79-1.08.96-1.26.3-2.3.38h-2.92c-.85-.08-1.51-.23-1.96-.46s-.78-.6-.98-1.12c-.2-.52-.3-1.27-.3-2.26v-8.4h-4.76v.96c-.03,2-.21,3.63-.56,4.9-.35,1.27-1.01,2.46-2,3.58-.99,1.12-2.47,2.36-4.44,3.72l-1.36-1.68c1.84-1.17,3.19-2.21,4.04-3.1.85-.89,1.44-1.89,1.76-2.98.32-1.09.49-2.59.52-4.48v-.92Z"/>
    <path class="cls-1" d="m240.91,163.42l-.72,1.96c-2.67-.67-4.95-1.35-6.86-2.06-1.91-.71-3.58-1.49-5.02-2.34-2.75,1.68-6.27,3.23-10.56,4.64l-.52-1.16c-1.07.53-2.47,1.2-4.2,2v12.24c0,.96-.1,1.68-.3,2.16-.2.48-.56.83-1.08,1.04-.52.21-1.3.37-2.34.48l-2.64.24-.72-2.08,3-.24c.85-.05,1.4-.22,1.64-.5.24-.28.36-.87.36-1.78v-10.64c-2.32,1.09-4.27,1.96-5.84,2.6l-.6-2.08c1.6-.64,3.75-1.59,6.44-2.84v-7.8h-5v-2.08h5v-7.32l2.08.12v7.2h4.56v2.08h-4.56v6.84c1.25-.56,2.51-1.16,3.76-1.8l.28,1.16.08.28c3.63-1.15,6.73-2.47,9.32-3.96-1.31-.96-2.48-2.08-3.52-3.36-1.04-1.28-2.07-2.81-3.08-4.6h-1.52v-1.92h18.76v2c-1.73,3.15-4.05,5.77-6.96,7.88,2.53,1.31,6.12,2.52,10.76,3.64Zm-3.12,6.52h-8.6v4.96h10.6v1.96h-10.6v6.64h-2.08v-6.64h-10.48v-1.96h10.48v-4.96h-8.44v-1.88h8.44v-4.4l2.08.12v4.28h8.6v1.88Zm-15.72-18.12c.91,1.52,1.85,2.83,2.84,3.92.99,1.09,2.11,2.07,3.36,2.92,2.85-1.95,5.05-4.23,6.6-6.84h-12.8Z"/>
    <path class="cls-1" d="m473.75,152.11v10.76h-25.36c-.03,2.8-.25,5.25-.66,7.34-.41,2.09-1.06,4.07-1.94,5.94-.88,1.87-2.08,3.95-3.6,6.24l-1.88-1.4c1.52-2.16,2.69-4.13,3.52-5.9s1.43-3.69,1.8-5.76c.37-2.07.56-4.55.56-7.46v-9.76h13.2c-.35-1.44-.83-2.95-1.44-4.52l2.16-.36c.43,1.09.95,2.72,1.56,4.88h12.08Zm-25.36,8.72h23.08v-6.72h-23.08v6.72Zm4.64,22.92h-2.24v-15.2h22.12v15.2h-2.2v-2.64h-17.68v2.64Zm17.68-4.6v-8.56h-17.68v8.56h17.68Z"/>
    <path class="cls-1" d="m495.95,179.15c-.24-.75-.44-1.35-.6-1.8l-5.2.52c-3.12.27-5.15.47-6.08.6-.4.05-1.09.23-2.08.52l-.8-2.2c.43-.19.74-.38.94-.58s.38-.46.54-.78c.69-1.23,1.53-3.06,2.52-5.5.99-2.44,1.77-4.66,2.36-6.66h-6.68v-2.12h17.2v2.12h-8.24c-.64,2.11-1.47,4.47-2.5,7.08-1.03,2.61-1.9,4.55-2.62,5.8l9.84-.92c-1.28-3.2-2.39-5.68-3.32-7.44l1.92-.76c.72,1.39,1.57,3.22,2.54,5.5.97,2.28,1.69,4.1,2.14,5.46l-1.88,1.16Zm-13.04-28.04h13.84v2.08h-13.84v-2.08Zm30.88,4.56c-.08,2.51-.2,6.01-.36,10.52s-.31,8.24-.44,11.2c-.05,1.23-.25,2.15-.6,2.78s-.9,1.09-1.66,1.38c-.76.29-1.89.52-3.38.68l-2.68.28-.64-2.28,2.84-.2c1.12-.11,1.95-.26,2.5-.46.55-.2.93-.53,1.16-1,.23-.47.37-1.18.42-2.14.11-2.43.24-5.53.4-9.3s.28-6.87.36-9.3h-7.4v.2c-.21,5.12-.52,9.03-.92,11.74-.4,2.71-1.12,5.13-2.16,7.26s-2.67,4.49-4.88,7.08l-1.88-1.36c2.13-2.37,3.71-4.53,4.72-6.48,1.01-1.95,1.73-4.23,2.14-6.84.41-2.61.7-6.37.86-11.28v-.32h-5.36v-2.16h5.4l.2-8.08,2.08.12-.16,7.96h9.44Z"/>
    <path class="cls-1" d="m554.95,172.15c-1.25-.21-2.32-.43-3.2-.64v11.56h-2v-2.12h-8.36v2.12h-1.96v-11.72h11.56c-5.81-1.39-10.13-3.56-12.96-6.52h-1.52c-1.01,1.44-2.49,2.67-4.42,3.68-1.93,1.01-4.65,1.96-8.14,2.84h11.4v11.72h-1.96v-2.12h-8.16v2.12h-2v-11.52l-3.16.72-.72-2c3.97-.69,7.09-1.47,9.34-2.32,2.25-.85,3.97-1.89,5.14-3.12h-12.76v-1.88h14.16c.56-1.01.97-2.2,1.24-3.56l2.2.44c-.32,1.15-.68,2.19-1.08,3.12h8.52c-1.79-1.47-2.99-2.4-3.6-2.8l1.16-1.36c1.25.85,2.56,1.87,3.92,3.04l-.8,1.12h7.08v1.88h-13.12c1.44,1.39,3.35,2.5,5.74,3.34,2.39.84,5.42,1.51,9.1,2.02l-.64,1.96Zm-31.8-22.72h12.16v9.2h-12.16v-9.2Zm1.96,7.36h8.24v-5.56h-8.24v5.56Zm8.28,22.44v-6.04h-8.16v6.04h8.16Zm6.12-29.8h12.28v9.2h-12.28v-9.2Zm1.88,23.76v6.04h8.36v-6.04h-8.36Zm.08-16.4h8.36v-5.56h-8.36v5.56Z"/>
    <path class="cls-1" d="m566.75,175.87c.8,0,1.35.13,1.64.38.29.25.44.81.44,1.66s-.15,1.45-.44,1.72c-.29.27-.84.4-1.64.4s-1.35-.13-1.64-.4c-.29-.27-.44-.84-.44-1.72s.15-1.41.44-1.66c.29-.25.84-.38,1.64-.38Zm-1.32-23.92h2.6l-.32,21.08h-1.96l-.32-21.08Z"/>
  </g>
  <rect class="cls-5" x="252.89" y="142" width="177.11" height="48" rx="12" ry="12"/>
  <g>
    <g id="_图层_1-2" data-name=" 图层 1-2">
      <path class="cls-4" d="m289.71,149.2h-19.58c-3.91,0-7.11,3.2-7.11,7.11v19.58c0,3.91,3.2,7.11,7.11,7.11h19.58c3.91,0,7.11-3.2,7.11-7.11v-19.58c0-3.91-3.2-7.11-7.11-7.11Zm-19.41,28.51l-2.35,1.9,3.8-7.15-6.56-6.65,15.43-5.48-8.69,6.88,6.34,4.53-7.97,5.98h0Zm8.95-6.27l8.69-6.88-6.34-4.53,7.97-5.98,2.35-1.9-3.8,7.15,6.56,6.65-15.43,5.48h0Z"/>
    </g>
    <g>
      <path class="cls-1" d="m308.94,170.05c.25-.39.68-.63,1.27-.72l.19-.03c.49-.07.88,0,1.19.2.31.21.63.56.97,1.07.47.69,1.14,1.18,2.01,1.47.87.3,1.76.33,2.65.09.89-.23,1.59-.73,2.1-1.49.33-.49.5-.98.51-1.47.02-.5-.12-.94-.42-1.34-.3-.4-.72-.69-1.26-.89-.42-.14-1.21-.3-2.38-.46-.23-.02-.87-.11-1.89-.27-1.32-.23-2.39-.89-3.22-1.96-.83-1.07-1.24-2.29-1.24-3.67s.47-2.57,1.41-3.6c.9-1.01,2.05-1.66,3.45-1.96,1.4-.3,2.79-.2,4.16.28,1.38.49,2.51,1.33,3.39,2.54.36.5.46.97.3,1.39s-.51.74-1.05.96l-.13.05c-.49.2-.91.22-1.27.07-.36-.15-.74-.46-1.14-.93-.47-.54-1.01-.9-1.62-1.08-.61-.18-1.22-.18-1.83,0-.6.18-1.12.51-1.56,1-.4.43-.59.92-.59,1.45s.17,1.01.51,1.43.79.71,1.35.85c.2.05.46.1.78.15s.65.08.97.12c1.26.11,2.22.28,2.87.51,1.37.5,2.4,1.24,3.1,2.22.69.97,1.03,2.05,1,3.23-.03,1.18-.41,2.3-1.15,3.37-.97,1.44-2.38,2.34-4.23,2.7-1.85.36-3.65.18-5.41-.54s-3.02-1.85-3.77-3.38c-.27-.54-.28-1-.03-1.39Z"/>
      <path class="cls-1" d="m329.19,157.77c-.29.3-.71.45-1.27.45h-.05c-.54,0-.96-.15-1.26-.45-.3-.3-.45-.72-.45-1.26v-.05c0-.56.15-.98.45-1.27.3-.29.72-.43,1.26-.43h.05c.56,0,.98.14,1.27.43.29.29.43.71.43,1.27v.05c0,.54-.14.96-.43,1.26Zm0,17.04c-.29.3-.71.45-1.27.45h-.05c-.54,0-.96-.15-1.26-.45-.3-.3-.45-.72-.45-1.26v-10.92c0-.56.15-.98.45-1.27.3-.29.72-.43,1.26-.43h.05c.56,0,.98.14,1.27.43.29.29.43.71.43,1.27v10.92c0,.54-.14.96-.43,1.26Z"/>
      <path class="cls-1" d="m333.95,165.76c.67-1.57,1.59-2.82,2.76-3.75,1.17-.93,2.48-1.39,3.92-1.39.9,0,1.72.26,2.46.78.74.52,1.33,1.28,1.76,2.27.43.99.65,2.16.65,3.52v6.35c0,.54-.14.96-.43,1.26s-.71.45-1.27.45h-.05c-.54,0-.96-.15-1.26-.45-.3-.3-.45-.72-.45-1.26v-6.35c0-.76-.1-1.37-.31-1.85-.21-.48-.49-.82-.84-1.04-.35-.22-.74-.32-1.18-.32-.65,0-1.22.13-1.7.41-.49.27-.88.73-1.16,1.38-.29.65-.43,1.52-.43,2.62l-3.46,2.43c0-1.8.33-3.49,1-5.06Zm2.03,9.05c-.29.3-.71.45-1.27.45h-.05c-.54,0-.96-.15-1.26-.45-.3-.3-.45-.72-.45-1.26v-10.92c0-.56.15-.98.45-1.27.3-.29.72-.43,1.26-.43h.05c.56,0,.98.14,1.27.43.29.29.43.71.43,1.27v10.92c0,.54-.14.96-.43,1.26Zm7.06-9.05c.67-1.57,1.59-2.82,2.76-3.75,1.17-.93,2.48-1.39,3.92-1.39.9,0,1.72.26,2.46.78.74.52,1.33,1.28,1.76,2.27.43.99.65,2.16.65,3.52v6.35c0,.54-.14.96-.43,1.26-.29.3-.71.45-1.27.45h-.05c-.54,0-.96-.15-1.26-.45s-.45-.72-.45-1.26v-6.35c0-.76-.1-1.37-.31-1.85-.21-.48-.49-.82-.84-1.04-.35-.22-.74-.32-1.18-.32-.65,0-1.22.13-1.7.41s-.88.73-1.16,1.38c-.29.65-.43,1.52-.43,2.62l-3.46,2.43c0-1.8.33-3.49,1-5.06Z"/>
      <path class="cls-1" d="m360.86,180.97c-.29.3-.71.45-1.27.45h-.05c-.54,0-.96-.15-1.26-.45-.3-.3-.45-.72-.45-1.26v-17.09c0-.56.15-.98.45-1.27.3-.29.72-.43,1.26-.43h.05c.56,0,.98.14,1.27.43.29.29.43.71.43,1.27v2.92l-.76,2.43.76,2.57v9.17c0,.54-.14.96-.43,1.26Zm8.25-19.35c1.08.67,1.93,1.57,2.54,2.72.61,1.14.92,2.39.92,3.75s-.31,2.6-.92,3.75c-.61,1.15-1.46,2.05-2.54,2.72-1.08.67-2.3,1-3.65,1s-2.47-.38-3.42-1.15c-.95-.77-1.65-1.73-2.12-2.88-.47-1.15-.7-2.3-.7-3.43s.23-2.28.7-3.43c.47-1.15,1.18-2.11,2.12-2.88.95-.77,2.09-1.15,3.42-1.15s2.57.33,3.65,1Zm-6.14,2.65c-.63.36-1.12.87-1.46,1.53-.34.66-.51,1.42-.51,2.29s.17,1.63.51,2.3c.34.67.83,1.18,1.46,1.54.63.36,1.37.54,2.22.54.67,0,1.29-.18,1.85-.55.57-.37,1.01-.89,1.34-1.55s.49-1.42.49-2.27-.16-1.6-.49-2.26-.77-1.17-1.33-1.54c-.56-.37-1.18-.55-1.87-.55-.85,0-1.59.18-2.22.54Z"/>
      <path class="cls-1" d="m397.09,174.79c-.31.31-.75.46-1.33.46h-.05c-.58,0-1.02-.15-1.33-.46-.31-.31-.46-.75-.46-1.33v-10.33l-5.41,11.01c-.18.38-.41.66-.7.84-.29.18-.65.27-1.08.27h-.11c-.43,0-.79-.09-1.08-.27-.29-.18-.52-.46-.7-.84l-5.41-11.01v10.33c0,.58-.15,1.02-.46,1.33-.31.31-.75.46-1.32.46h-.05c-.58,0-1.02-.15-1.33-.46-.31-.31-.46-.75-.46-1.33v-16.47c0-.58.14-1.02.43-1.32.29-.31.7-.46,1.24-.46h.22c.99,0,1.69.43,2.11,1.3l6.87,13.98,6.87-13.98c.41-.87,1.12-1.3,2.11-1.3h.11c.58,0,1.02.15,1.33.46.31.31.46.75.46,1.32v16.47c0,.58-.15,1.02-.46,1.33Z"/>
      <path class="cls-1" d="m405.73,174.16c-1.54-.93-2.75-2.18-3.62-3.76-.87-1.58-1.31-3.3-1.31-5.18s.44-3.57,1.31-5.15c.88-1.58,2.08-2.83,3.62-3.76,1.54-.93,3.25-1.39,5.12-1.39,1.32,0,2.53.23,3.65.7,1.12.47,2.14,1.14,3.06,2,.43.42.63.83.59,1.26s-.29.83-.76,1.2l-.08.05c-.43.34-.85.5-1.24.46-.4-.04-.81-.25-1.24-.65-.58-.54-1.18-.94-1.81-1.2-.63-.26-1.35-.39-2.16-.39-1.28,0-2.41.29-3.39.88s-1.75,1.4-2.3,2.45c-.55,1.05-.83,2.23-.83,3.54s.27,2.52.81,3.57,1.31,1.86,2.3,2.45c.99.59,2.13.88,3.41.88v3.43c-1.88,0-3.58-.46-5.12-1.39Zm10.36-4.19c.39-.04.8.09,1.23.42l.08.05c.49.36.75.76.8,1.2.04.44-.15.86-.58,1.26-.9.81-1.93,1.46-3.08,1.93-1.15.48-2.38.72-3.68.72-1.88,0-3.58-.46-5.12-1.39s-2.75-2.18-3.62-3.76c-.87-1.58-1.31-3.3-1.31-5.18s.44-3.57,1.31-5.15c.88-1.58,2.08-2.83,3.62-3.76,1.54-.93,3.25-1.39,5.12-1.39v3.43c-1.28,0-2.41.29-3.39.88s-1.75,1.4-2.3,2.45c-.55,1.05-.83,2.23-.83,3.54s.27,2.52.81,3.57,1.31,1.86,2.3,2.45c.99.59,2.13.88,3.41.88.79,0,1.52-.13,2.18-.39.66-.26,1.27-.63,1.83-1.12.43-.38.84-.59,1.23-.64Z"/>
    </g>
  </g>
  <g>
    <path class="cls-1" d="m889.83,229.94v-3.77h.53v3.61c0,.4.05.71.14.94.1.22.25.38.46.48.21.09.5.14.87.14.39,0,.69-.05.9-.14.21-.09.37-.25.46-.47.09-.22.14-.54.14-.94v-3.61h.52v3.77c0,.66-.17,1.13-.5,1.42-.33.29-.85.44-1.53.44s-1.19-.14-1.52-.43c-.32-.29-.48-.77-.48-1.43Z"/>
    <path class="cls-1" d="m898.66,228.72v3.01h-.51v-2.77c0-.28-.03-.51-.08-.68-.05-.17-.15-.29-.29-.38-.14-.08-.34-.12-.6-.12-.34,0-.62.07-.86.2-.24.14-.41.39-.5.76v2.98h-.5v-4.32h.5v.69c.09-.27.27-.46.54-.58.27-.12.56-.18.89-.18.52,0,.89.12,1.1.36s.32.58.32,1.04Z"/>
    <path class="cls-1" d="m903.58,225.65v6.08h-.42l-.07-.86c-.09.29-.26.52-.5.69-.25.17-.58.25-.99.25-.64,0-1.1-.19-1.35-.56-.25-.37-.38-.93-.38-1.68,0-.7.13-1.25.39-1.65.26-.39.71-.59,1.34-.59.42,0,.75.08.98.24.23.16.4.39.5.68v-2.6h.5Zm-.49,3.92c0-.57-.11-1.01-.32-1.33-.21-.31-.59-.47-1.11-.47-.34,0-.61.08-.79.23-.19.15-.31.36-.38.61s-.1.58-.1.96.03.72.1.98.19.46.38.6c.19.14.45.22.79.22.52,0,.89-.15,1.11-.46.22-.31.32-.75.32-1.34Z"/>
    <path class="cls-1" d="m908.31,229.57l-3,.2c0,.38.05.69.15.92.09.23.25.4.46.5s.5.16.87.16c.24,0,.48-.03.72-.08s.46-.12.63-.2v.48c-.14.06-.34.12-.61.17s-.54.08-.8.08c-.45,0-.82-.07-1.11-.21-.28-.14-.49-.37-.63-.7s-.21-.77-.21-1.33.07-1,.21-1.33.35-.56.62-.7c.28-.14.63-.21,1.08-.21.65,0,1.09.17,1.31.5.22.33.34.76.34,1.28,0,.12,0,.27-.02.46Zm-.47-.39c0-.31-.03-.57-.08-.77s-.16-.35-.33-.47-.42-.18-.75-.18-.62.06-.82.17-.34.29-.42.52c-.08.23-.12.54-.13.92l2.53-.19Z"/>
    <path class="cls-1" d="m911.54,227.33l-.02.46h-.1c-.32,0-.6.07-.83.22-.23.14-.41.4-.52.76v2.96h-.51v-4.32h.51v.78c.2-.57.66-.86,1.38-.86h.08Z"/>
    <path class="cls-1" d="m918.09,231.73l-.66-1.77h-2.52l-.66,1.77h-.55l2.12-5.55h.74l2.1,5.55h-.57Zm-3-2.24h2.18l-1.03-2.81h-.09l-1.06,2.81Z"/>
    <path class="cls-1" d="m923.17,229.57c0,.7-.13,1.25-.38,1.65s-.7.59-1.34.59c-.79,0-1.29-.31-1.49-.92v2.44h-.51v-5.92h.51v.87c.09-.3.26-.54.49-.7.24-.17.57-.25,1-.25.64,0,1.09.19,1.34.56.25.37.38.93.38,1.68Zm-.53,0c0-.4-.03-.73-.1-.99-.07-.26-.2-.46-.38-.6-.19-.14-.45-.21-.78-.21-.53,0-.9.15-1.12.46-.22.31-.32.75-.32,1.34s.11,1.01.33,1.33.59.47,1.11.47.83-.15,1-.46.26-.75.26-1.34Z"/>
    <path class="cls-1" d="m927.71,228.67v3.06h-.43l-.08-.72c-.12.25-.33.45-.63.59-.3.14-.63.21-1,.21-.98,0-1.47-.42-1.47-1.27,0-.5.15-.85.45-1.06.3-.2.72-.3,1.26-.3h1.39v-.42c0-.34-.08-.59-.24-.75-.16-.16-.46-.24-.9-.24-.33,0-.65.04-.96.1v-.46c.36-.05.69-.08.99-.08.61,0,1.04.12,1.27.35.23.23.35.56.35,1Zm-.51,1.77v-.84h-1.34c-.29,0-.52.03-.7.08s-.31.14-.4.28c-.09.14-.14.33-.14.58,0,.28.08.48.24.62.16.14.41.2.74.2.4,0,.74-.08,1.02-.24.28-.16.47-.39.58-.68Z"/>
    <path class="cls-1" d="m928.92,229.57c0-.56.07-1,.21-1.33s.35-.56.62-.7c.27-.14.63-.21,1.07-.21.22,0,.43.02.63.04.2.03.36.07.49.11v.48c-.34-.12-.71-.18-1.11-.18-.35,0-.62.05-.81.16s-.33.29-.42.55-.13.62-.13,1.08.04.82.13,1.07.23.44.42.55.46.16.8.16c.43,0,.81-.07,1.13-.21v.48c-.13.05-.3.09-.51.13-.21.04-.42.06-.62.06-.44,0-.79-.07-1.07-.21-.28-.14-.48-.37-.62-.7s-.21-.77-.21-1.33Z"/>
    <path class="cls-1" d="m936.4,228.72v3.01h-.5v-2.77c0-.28-.03-.51-.08-.68-.05-.17-.15-.29-.29-.38-.14-.08-.34-.12-.6-.12-.34,0-.62.07-.87.2-.24.14-.41.39-.5.76v2.98h-.5v-6.08h.5v2.45c.09-.27.27-.46.54-.58.27-.12.56-.18.89-.18.52,0,.89.12,1.11.36.21.24.32.58.32,1.04Z"/>
    <path class="cls-1" d="m941.1,229.57l-3,.2c0,.38.05.69.15.92.09.23.25.4.46.5s.5.16.87.16c.24,0,.48-.03.72-.08s.46-.12.63-.2v.48c-.14.06-.34.12-.61.17s-.54.08-.8.08c-.45,0-.82-.07-1.11-.21-.28-.14-.49-.37-.63-.7s-.21-.77-.21-1.33.07-1,.21-1.33.35-.56.62-.7c.28-.14.63-.21,1.08-.21.65,0,1.09.17,1.31.5.22.33.34.76.34,1.28,0,.12,0,.27-.02.46Zm-.47-.39c0-.31-.03-.57-.08-.77s-.16-.35-.33-.47-.42-.18-.75-.18-.62.06-.82.17-.34.29-.42.52c-.08.23-.12.54-.13.92l2.53-.19Z"/>
    <path class="cls-1" d="m942.17,229.49v-.43h2.33v.43h-2.33Z"/>
    <path class="cls-1" d="m945.48,231.16c.77-.62,1.36-1.13,1.76-1.54.4-.41.67-.75.81-1.05.14-.29.22-.6.22-.92,0-.39-.11-.68-.34-.85s-.53-.26-.9-.26-.77.05-1.15.15v-.49c.4-.08.8-.12,1.19-.12.55,0,.97.12,1.27.36.3.24.45.64.45,1.2,0,.36-.07.7-.21,1.01-.14.31-.38.64-.71.98s-.8.77-1.42,1.28l-.33.27v.06h2.94v.46h-3.58v-.57Z"/>
    <path class="cls-1" d="m950.21,231.37c0-.17.03-.28.09-.33.06-.05.17-.08.34-.08s.27.03.32.08c.06.05.08.16.08.33s-.03.29-.09.34c-.06.05-.17.08-.32.08-.17,0-.28-.03-.34-.08-.06-.05-.09-.17-.09-.34Z"/>
    <path class="cls-1" d="m952.13,228.95c0-.74.07-1.31.22-1.73.15-.42.35-.71.62-.88s.6-.25,1-.25.74.08,1.01.25c.27.17.47.46.62.88.14.42.21,1,.21,1.73s-.07,1.32-.21,1.74c-.14.42-.35.71-.62.87-.27.17-.6.25-1.01.25s-.73-.08-1-.25-.47-.46-.62-.88c-.15-.42-.22-1-.22-1.73Zm3.14,0c0-.62-.05-1.11-.14-1.46-.09-.35-.23-.59-.42-.73s-.44-.21-.74-.21-.55.07-.74.21c-.19.14-.32.38-.42.73-.09.35-.13.83-.13,1.46s.04,1.11.13,1.46c.09.35.23.59.41.73s.43.21.74.21.56-.07.74-.21.32-.39.42-.73c.09-.35.14-.83.14-1.46Z"/>
    <path class="cls-1" d="m959.44,231.24h2.49v.49h-3.02v-5.55h.53v5.06Z"/>
    <path class="cls-1" d="m962.76,226.19c0-.14.02-.23.07-.27s.13-.06.26-.06c.12,0,.2.02.24.06s.07.13.07.27-.02.23-.07.27-.13.06-.24.06c-.13,0-.21-.02-.26-.06s-.07-.13-.07-.27Zm.06,5.54v-4.32h.51v4.32h-.51Z"/>
    <path class="cls-1" d="m964.54,229.57c0-.56.07-1,.21-1.33s.35-.56.62-.7c.27-.14.63-.21,1.07-.21.22,0,.43.02.63.04.2.03.36.07.49.11v.48c-.34-.12-.71-.18-1.11-.18-.35,0-.62.05-.81.16s-.33.29-.42.55-.13.62-.13,1.08.04.82.13,1.07.23.44.42.55.46.16.8.16c.43,0,.81-.07,1.13-.21v.48c-.13.05-.3.09-.51.13-.21.04-.42.06-.62.06-.44,0-.79-.07-1.07-.21-.28-.14-.48-.37-.62-.7s-.21-.77-.21-1.33Z"/>
    <path class="cls-1" d="m971.92,229.57l-3,.2c0,.38.05.69.15.92.09.23.25.4.46.5s.5.16.87.16c.24,0,.48-.03.72-.08s.46-.12.63-.2v.48c-.14.06-.34.12-.61.17s-.54.08-.8.08c-.45,0-.82-.07-1.11-.21-.28-.14-.49-.37-.63-.7s-.21-.77-.21-1.33.07-1,.21-1.33.35-.56.62-.7c.28-.14.63-.21,1.08-.21.65,0,1.09.17,1.31.5.22.33.34.76.34,1.28,0,.12,0,.27-.02.46Zm-.47-.39c0-.31-.03-.57-.08-.77s-.16-.35-.33-.47-.42-.18-.75-.18-.62.06-.82.17-.34.29-.42.52c-.08.23-.12.54-.13.92l2.53-.19Z"/>
    <path class="cls-1" d="m976.54,228.72v3.01h-.51v-2.77c0-.28-.03-.51-.08-.68-.05-.17-.15-.29-.29-.38-.14-.08-.34-.12-.6-.12-.34,0-.62.07-.86.2-.24.14-.41.39-.5.76v2.98h-.5v-4.32h.5v.69c.09-.27.27-.46.54-.58.27-.12.56-.18.89-.18.52,0,.89.12,1.1.36s.32.58.32,1.04Z"/>
    <path class="cls-1" d="m977.71,231.65v-.46c.16.04.36.08.59.11s.44.04.65.04c.37,0,.64-.06.81-.18.18-.12.27-.32.27-.59,0-.18-.03-.31-.08-.42-.05-.1-.15-.19-.29-.26-.14-.07-.35-.14-.63-.21-.32-.08-.57-.17-.74-.26-.17-.09-.3-.21-.38-.36-.08-.15-.12-.35-.12-.6,0-.37.13-.65.38-.86.26-.2.62-.3,1.08-.3.21,0,.42.02.62.04.21.03.37.06.48.1l-.03.46c-.13-.05-.29-.09-.49-.12-.19-.03-.39-.05-.58-.05-.32,0-.56.06-.73.17-.17.11-.25.3-.25.57,0,.17.03.3.09.4s.15.17.26.22.29.11.54.16c.34.08.61.17.8.27.19.1.33.23.42.38.09.16.14.37.14.64,0,.39-.13.7-.39.9-.26.21-.65.31-1.17.31-.21,0-.44-.01-.67-.04-.23-.02-.43-.05-.58-.09Z"/>
    <path class="cls-1" d="m984.95,229.57l-3,.2c0,.38.05.69.15.92.09.23.25.4.46.5s.5.16.87.16c.24,0,.48-.03.72-.08s.46-.12.63-.2v.48c-.14.06-.34.12-.61.17s-.54.08-.8.08c-.45,0-.82-.07-1.11-.21-.28-.14-.49-.37-.63-.7s-.21-.77-.21-1.33.07-1,.21-1.33.35-.56.62-.7c.28-.14.63-.21,1.08-.21.65,0,1.09.17,1.31.5.22.33.34.76.34,1.28,0,.12,0,.27-.02.46Zm-.47-.39c0-.31-.03-.57-.08-.77s-.16-.35-.33-.47-.42-.18-.75-.18-.62.06-.82.17-.34.29-.42.52c-.08.23-.12.54-.13.92l2.53-.19Z"/>
    <path class="cls-1" d="m881.89,238.95c0-1.02.22-1.76.66-2.2.44-.44,1.08-.66,1.92-.66.47,0,.86.05,1.17.15v.5c-.34-.12-.73-.18-1.16-.18-.69,0-1.2.18-1.53.54-.33.36-.5.97-.5,1.83,0,.61.07,1.09.21,1.44.14.35.36.59.64.73s.64.21,1.08.21c.26,0,.48-.02.68-.06.2-.04.41-.1.64-.18v.46c-.38.17-.82.25-1.34.25-.54,0-.99-.08-1.34-.24-.36-.16-.63-.45-.83-.87s-.3-1-.3-1.74Z"/>
    <path class="cls-1" d="m886.5,239.57c0-.56.07-1,.2-1.33s.34-.56.62-.7.64-.21,1.09-.21.81.07,1.09.21.48.37.62.7.21.77.21,1.33-.07,1-.21,1.33-.35.56-.62.7-.64.21-1.09.21-.81-.07-1.09-.21-.48-.37-.62-.7-.2-.77-.2-1.33Zm3.29,0c0-.46-.04-.82-.13-1.08-.09-.26-.23-.44-.43-.56-.2-.11-.47-.17-.83-.17s-.63.06-.83.17-.34.3-.42.56c-.08.26-.12.62-.12,1.08s.04.82.13,1.08c.08.26.23.44.42.56.2.11.47.17.82.17s.64-.06.84-.17c.2-.11.34-.3.42-.55.08-.26.12-.62.12-1.08Z"/>
    <path class="cls-1" d="m895.28,239.57c0,.7-.13,1.25-.38,1.65s-.7.59-1.34.59c-.79,0-1.29-.31-1.49-.92v2.44h-.51v-5.92h.51v.87c.09-.3.25-.54.49-.7.24-.17.57-.25,1-.25.64,0,1.09.19,1.34.56.25.37.38.93.38,1.68Zm-.53,0c0-.4-.04-.73-.1-.99-.07-.26-.2-.46-.38-.6s-.44-.21-.78-.21c-.53,0-.9.15-1.12.46-.21.31-.32.75-.32,1.34s.11,1.01.33,1.33.59.47,1.11.47c.5,0,.83-.15,1-.46.17-.31.26-.75.26-1.34Z"/>
    <path class="cls-1" d="m896.15,242.89c.25,0,.45-.04.6-.11.16-.07.29-.2.4-.36s.21-.4.32-.7l-1.73-4.3h.54l1.43,3.73h.05l1.33-3.73h.52l-1.58,4.27c-.15.39-.29.7-.43.92s-.32.4-.55.53-.53.19-.9.19v-.44Z"/>
    <path class="cls-1" d="m902.38,237.33l-.02.46h-.1c-.32,0-.6.07-.83.22-.23.14-.41.4-.52.76v2.96h-.51v-4.32h.51v.78c.2-.57.66-.86,1.38-.86h.08Z"/>
    <path class="cls-1" d="m903.19,236.19c0-.14.02-.23.07-.27.04-.04.13-.06.26-.06.12,0,.2.02.24.06s.07.13.07.27-.02.23-.07.27-.13.06-.24.06c-.13,0-.21-.02-.26-.06-.05-.04-.07-.13-.07-.27Zm.06,5.54v-4.32h.51v4.32h-.51Z"/>
    <path class="cls-1" d="m908.73,241.44c0,.61-.17,1.08-.51,1.4-.34.33-.85.49-1.52.49-.4,0-.74-.03-1.01-.1v-.45c.28.06.62.1,1.01.1.52,0,.91-.12,1.16-.37s.37-.63.37-1.16v-.5c-.1.29-.26.51-.5.66s-.56.22-.99.22-.78-.08-1.04-.25-.43-.41-.54-.73c-.11-.32-.16-.72-.16-1.22,0-.7.13-1.24.39-1.62.26-.38.71-.58,1.34-.58.43,0,.76.08.99.25s.4.4.5.7v-.87h.5v4.03Zm-.49-1.91c0-.57-.11-1.01-.32-1.31-.21-.3-.58-.45-1.11-.45-.35,0-.61.07-.79.22-.18.14-.31.34-.37.6-.06.25-.1.57-.1.95s.03.72.1.97c.07.25.19.45.38.58.18.14.45.21.79.21.53,0,.9-.15,1.11-.45s.31-.74.31-1.31Z"/>
    <path class="cls-1" d="m913.57,238.72v3.01h-.5v-2.77c0-.28-.03-.51-.08-.68-.05-.17-.15-.29-.29-.38-.14-.08-.34-.12-.6-.12-.34,0-.62.07-.87.2-.24.14-.41.39-.5.76v2.98h-.5v-6.08h.5v2.45c.09-.27.27-.46.54-.58.27-.12.56-.18.89-.18.52,0,.89.12,1.11.36.21.24.32.58.32,1.04Z"/>
    <path class="cls-1" d="m916.73,241.28v.45c-.22.03-.4.05-.53.05-.3,0-.54-.03-.71-.1-.16-.07-.29-.2-.36-.39-.07-.19-.11-.48-.11-.86v-2.58h-.67v-.44h.67v-1.02h.5v1.02h1.14v.44h-1.14v2.57c0,.25.02.44.05.57.04.13.1.22.2.27.09.05.23.08.42.08.2,0,.37-.02.53-.06Z"/>
    <path class="cls-1" d="m919.22,241.16c.77-.62,1.36-1.13,1.76-1.54s.67-.75.82-1.05c.14-.29.21-.6.21-.92,0-.39-.11-.68-.34-.85s-.53-.26-.9-.26-.77.05-1.15.15v-.49c.4-.08.8-.12,1.19-.12.55,0,.97.12,1.27.36.3.24.45.64.45,1.2,0,.36-.07.7-.22,1.01-.14.31-.38.64-.71.98-.33.35-.81.77-1.43,1.28l-.33.27v.06h2.94v.46h-3.58v-.57Z"/>
    <path class="cls-1" d="m923.65,238.95c0-.74.07-1.31.22-1.73.15-.42.35-.71.62-.88s.6-.25,1-.25.74.08,1.01.25c.27.17.47.46.62.88.14.42.21,1,.21,1.73s-.07,1.32-.21,1.74c-.14.42-.35.71-.62.87-.27.17-.6.25-1.01.25s-.73-.08-1-.25-.47-.46-.62-.88c-.15-.42-.22-1-.22-1.73Zm3.14,0c0-.62-.05-1.11-.14-1.46-.09-.35-.23-.59-.42-.73s-.44-.21-.74-.21-.55.07-.74.21c-.19.14-.32.38-.42.73-.09.35-.13.83-.13,1.46s.04,1.11.13,1.46c.09.35.23.59.41.73s.43.21.74.21.56-.07.74-.21.32-.39.42-.73c.09-.35.14-.83.14-1.46Z"/>
    <path class="cls-1" d="m928.16,241.16c.77-.62,1.36-1.13,1.76-1.54s.67-.75.82-1.05c.14-.29.21-.6.21-.92,0-.39-.11-.68-.34-.85s-.53-.26-.9-.26-.77.05-1.15.15v-.49c.4-.08.8-.12,1.19-.12.55,0,.97.12,1.27.36.3.24.45.64.45,1.2,0,.36-.07.7-.22,1.01-.14.31-.38.64-.71.98-.33.35-.81.77-1.43,1.28l-.33.27v.06h2.94v.46h-3.58v-.57Z"/>
    <path class="cls-1" d="m932.67,239.57c0-1.07.24-1.92.71-2.54s1.19-.93,2.17-.93v.46c-.47,0-.86.09-1.2.28-.33.18-.59.43-.77.74-.18.31-.29.66-.33,1.05h.03c.13-.15.3-.28.52-.38.22-.1.47-.15.77-.15.52,0,.92.15,1.21.46.28.31.42.75.42,1.34s-.14,1.04-.41,1.39c-.28.35-.72.52-1.33.52-.55,0-.98-.17-1.3-.51-.31-.34-.47-.92-.47-1.73Zm3.01.33c0-.45-.1-.79-.3-1.02-.2-.23-.48-.35-.84-.35-.44,0-.78.11-1,.33s-.34.51-.34.88c0,1.08.42,1.62,1.26,1.62.42,0,.73-.12.93-.36.2-.24.3-.6.3-1.1Z"/>
    <path class="cls-1" d="m939.06,241.58v-.51c.18.07.42.13.73.18.3.05.61.08.92.08.46,0,.81-.08,1.05-.25s.35-.44.35-.82c0-.25-.04-.45-.12-.6-.08-.15-.22-.27-.41-.36s-.47-.19-.84-.28c-.41-.1-.72-.2-.93-.31-.22-.11-.37-.25-.47-.44-.1-.18-.15-.43-.15-.74,0-.97.6-1.46,1.79-1.46.24,0,.49.02.76.06.27.04.47.09.62.14v.5c-.18-.06-.39-.12-.64-.16-.25-.04-.49-.06-.74-.06-.43,0-.75.07-.95.22-.2.15-.3.4-.3.76,0,.21.03.37.09.49.06.12.18.22.35.3.17.08.43.16.78.24.43.1.77.21,1,.34.24.12.41.29.53.5.11.21.17.49.17.84,0,.53-.16.92-.48,1.17-.32.25-.8.38-1.44.38-.33,0-.65-.02-.96-.07s-.54-.1-.69-.15Z"/>
    <path class="cls-1" d="m943.73,236.19c0-.14.02-.23.07-.27.04-.04.13-.06.26-.06.12,0,.2.02.24.06s.07.13.07.27-.02.23-.07.27-.13.06-.24.06c-.13,0-.21-.02-.26-.06-.05-.04-.07-.13-.07-.27Zm.06,5.54v-4.32h.51v4.32h-.51Z"/>
    <path class="cls-1" d="m951.57,238.72v3.01h-.51v-2.77c0-.42-.06-.72-.19-.9-.13-.18-.37-.27-.72-.27-.31,0-.58.07-.79.2-.21.13-.35.37-.43.72v3.03h-.51v-2.77c0-.42-.06-.72-.18-.9s-.36-.27-.7-.27c-.32,0-.58.06-.79.19s-.35.36-.44.72v3.04h-.5v-4.32h.5v.65c.1-.26.26-.44.49-.56.23-.12.5-.17.81-.17.35,0,.63.07.83.2.2.13.34.33.43.58.09-.27.26-.47.51-.59s.54-.18.86-.18c.48,0,.82.12,1.04.36.21.24.32.59.32,1.03Z"/>
    <path class="cls-1" d="m956.72,239.57c0,.7-.13,1.25-.38,1.65s-.7.59-1.34.59c-.79,0-1.29-.31-1.49-.92v2.44h-.51v-5.92h.51v.87c.09-.3.26-.54.49-.7.24-.17.57-.25,1-.25.64,0,1.09.19,1.34.56.25.37.38.93.38,1.68Zm-.53,0c0-.4-.03-.73-.1-.99-.07-.26-.2-.46-.38-.6-.19-.14-.45-.21-.78-.21-.53,0-.9.15-1.12.46-.22.31-.32.75-.32,1.34s.11,1.01.33,1.33.59.47,1.11.47.83-.15,1-.46.26-.75.26-1.34Z"/>
    <path class="cls-1" d="m958.48,241.24h2.68v.49h-3.21v-5.55h2.97v.48h-2.44v1.94h2.28v.46h-2.28v2.19Z"/>
    <path class="cls-1" d="m963.92,239.39c-.07,0-.2,0-.37,0h-.73v2.33h-.53v-5.55h1.22c.54,0,.96.05,1.26.14.3.1.52.26.65.48s.2.54.2.96c0,.49-.09.85-.28,1.09-.18.24-.48.4-.89.48l1.7,2.4h-.63l-1.61-2.34Zm-.41-.45c.41,0,.73-.03.95-.08.22-.06.38-.17.49-.34.11-.17.16-.42.16-.76,0-.3-.05-.54-.16-.7-.11-.16-.27-.27-.5-.33-.22-.06-.54-.09-.94-.09h-.69v2.3h.69Z"/>
    <path class="cls-1" d="m968.64,239.39c-.08,0-.2,0-.37,0h-.73v2.33h-.53v-5.55h1.22c.54,0,.96.05,1.26.14.3.1.52.26.65.48.13.23.2.54.2.96,0,.49-.09.85-.28,1.09-.18.24-.48.4-.89.48l1.7,2.4h-.63l-1.61-2.34Zm-.41-.45c.41,0,.73-.03.95-.08.22-.06.38-.17.49-.34s.16-.42.16-.76c0-.3-.05-.54-.16-.7-.11-.16-.27-.27-.5-.33s-.54-.09-.94-.09h-.69v2.3h.69Z"/>
    <path class="cls-1" d="m971.47,238.95c0-.72.08-1.3.25-1.71s.42-.71.76-.88c.34-.17.78-.26,1.33-.26s.98.09,1.32.26c.34.17.59.47.76.88.17.42.26.99.26,1.71s-.09,1.3-.26,1.71c-.17.42-.43.71-.76.88-.34.17-.78.26-1.32.26s-.99-.09-1.33-.26c-.34-.17-.59-.47-.76-.88-.17-.41-.25-.99-.25-1.72Zm4.13,0c0-.59-.05-1.05-.16-1.4-.1-.34-.29-.6-.54-.76-.26-.16-.62-.24-1.09-.24s-.83.08-1.09.24c-.26.16-.44.42-.54.76-.1.34-.16.81-.16,1.39s.05,1.06.16,1.4.29.59.54.75c.26.16.62.24,1.09.24s.83-.08,1.09-.24c.26-.16.44-.41.54-.75.11-.34.16-.81.16-1.41Z"/>
    <path class="cls-1" d="m979.1,239.39c-.07,0-.2,0-.37,0h-.73v2.33h-.53v-5.55h1.22c.54,0,.96.05,1.26.14.3.1.52.26.65.48s.2.54.2.96c0,.49-.09.85-.28,1.09-.18.24-.48.4-.89.48l1.7,2.4h-.63l-1.61-2.34Zm-.41-.45c.41,0,.73-.03.95-.08.22-.06.38-.17.49-.34.11-.17.16-.42.16-.76,0-.3-.05-.54-.16-.7-.11-.16-.27-.27-.5-.33-.22-.06-.54-.09-.94-.09h-.69v2.3h.69Z"/>
    <path class="cls-1" d="m981.46,243.34v-.44h4v.44h-4Z"/>
  </g>
</svg>